<svg width="26" height="25" viewBox="0 0 26 25" fill="none" xmlns="http://www.w3.org/2000/svg">
<path d="M6.0013 9.08276C6.0013 5.53894 8.87414 2.6661 12.418 2.6661C15.5571 2.6661 18.172 4.92147 18.7262 7.90055C18.8039 8.31831 19.1026 8.66078 19.5059 8.79454C21.8285 9.56483 23.5013 11.755 23.5013 14.3328C23.5013 17.5544 20.8896 20.1661 17.668 20.1661C17.0236 20.1661 16.5013 20.6884 16.5013 21.3328C16.5013 21.9771 17.0236 22.4994 17.668 22.4994C22.1783 22.4994 25.8346 18.8431 25.8346 14.3328C25.8346 10.9582 23.7886 8.06423 20.872 6.81894C19.874 3.08377 16.4683 0.332764 12.418 0.332764C7.58548 0.332764 3.66797 4.25027 3.66797 9.08276C3.66797 9.19976 3.67027 9.31626 3.67484 9.43224C1.58019 10.6407 0.167969 12.9041 0.167969 15.4994C0.167969 19.3654 3.30198 22.4994 7.16797 22.4994C7.8123 22.4994 8.33464 21.9771 8.33464 21.3328C8.33464 20.6884 7.8123 20.1661 7.16797 20.1661C4.59064 20.1661 2.5013 18.0768 2.5013 15.4994C2.5013 13.5659 3.67751 11.9043 5.35806 11.1964C5.84437 10.9915 6.13263 10.4858 6.06103 9.96294C6.0217 9.67573 6.0013 9.38195 6.0013 9.08276Z" fill="#6A6B72"/>
<path d="M12.2262 14.6275C12.6682 14.2345 13.3344 14.2345 13.7764 14.6275L15.5264 16.183C16.008 16.6111 16.0514 17.3485 15.6233 17.8301C15.2488 18.2514 14.6376 18.3373 14.168 18.0656V23.6661C14.168 24.3104 13.6456 24.8328 13.0013 24.8328C12.357 24.8328 11.8346 24.3104 11.8346 23.6661V18.0656C11.3651 18.3373 10.7538 18.2514 10.3793 17.8301C9.95125 17.3485 9.99463 16.6111 10.4762 16.183L12.2262 14.6275Z" fill="#6A6B72"/>
</svg>
