<svg width="151" height="150" viewBox="0 0 151 150" fill="none" xmlns="http://www.w3.org/2000/svg">
<path d="M75.749 128.201C104.068 128.201 127.025 119.195 127.025 108.086C127.025 96.9767 104.068 87.9708 75.749 87.9708C47.4299 87.9708 24.4727 96.9767 24.4727 108.086C24.4727 119.195 47.4299 128.201 75.749 128.201Z" fill="#B3D3FF"/>
<path d="M110.213 99.4403L112.308 102.783L102.721 104.454L100.625 101.111L110.213 99.4403Z" fill="#2B2B57"/>
<path d="M102.721 104.743C102.622 104.743 102.529 104.693 102.476 104.607L100.38 101.264C100.329 101.182 100.322 101.081 100.361 100.993C100.4 100.906 100.48 100.843 100.575 100.826L110.162 99.1556C110.279 99.1348 110.394 99.1876 110.457 99.2862L112.552 102.629C112.604 102.711 112.611 102.813 112.572 102.9C112.533 102.988 112.452 103.05 112.358 103.067L102.771 104.738C102.754 104.742 102.737 104.743 102.721 104.743ZM101.098 101.322L102.862 104.136L111.836 102.572L110.072 99.7584L101.098 101.322Z" fill="#B3D3FF"/>
<path d="M111.311 64.5792L110.503 71.2167C109.342 80.7542 109.243 90.2376 110.214 99.4417L100.625 101.111L104.796 86.8487L111.311 64.5792Z" fill="#555578"/>
<path d="M100.625 101.4C100.543 101.4 100.465 101.365 100.41 101.304C100.343 101.229 100.32 101.126 100.347 101.031L111.033 64.4987C111.075 64.3543 111.222 64.2668 111.37 64.2973C111.517 64.3279 111.617 64.4654 111.599 64.6154L110.79 71.2529C109.632 80.764 109.535 90.2376 110.502 99.4126C110.518 99.564 110.414 99.7015 110.264 99.7279L100.677 101.399C100.658 101.399 100.642 101.4 100.625 101.4ZM110.597 68.0473L101.032 100.747L109.897 99.2029C108.956 90.0682 109.063 80.6432 110.215 71.1821L110.597 68.0473Z" fill="#B3D3FF"/>
<path d="M113.407 67.9223L111.312 64.5792L110.503 71.2167C109.342 80.7542 109.244 90.2376 110.214 99.4417L112.31 102.785C111.341 93.5806 111.438 84.0987 112.599 74.5598L113.407 67.9223Z" fill="#555578"/>
<path d="M112.309 103.072C112.212 103.072 112.119 103.022 112.065 102.936L109.969 99.5932C109.945 99.5557 109.931 99.514 109.926 99.4696C108.955 90.2515 109.052 80.7334 110.216 71.1793L111.024 64.5418C111.04 64.421 111.128 64.321 111.248 64.2946C111.367 64.2682 111.491 64.3196 111.555 64.4237L113.651 67.7668C113.685 67.8223 113.701 67.889 113.692 67.9557L112.884 74.5932C111.726 84.1043 111.628 93.5779 112.595 102.753C112.609 102.886 112.53 103.013 112.402 103.056C112.373 103.068 112.341 103.072 112.309 103.072ZM110.494 99.3446L111.898 101.586C111.06 92.7529 111.199 83.6543 112.31 74.5251L113.106 67.989L111.498 65.4237L110.788 71.2515C109.634 80.739 109.535 90.1904 110.494 99.3446Z" fill="#B3D3FF"/>
<path d="M99.3158 105.59L101.412 108.933H98.9533L96.8574 105.59H99.3158Z" fill="#2B2B57"/>
<path d="M101.411 109.222H98.9545C98.8545 109.222 98.7628 109.171 98.71 109.086L96.6142 105.743C96.5586 105.654 96.5558 105.542 96.6058 105.45C96.6572 105.358 96.7531 105.301 96.8586 105.301H99.3156C99.4156 105.301 99.5072 105.353 99.56 105.438L101.656 108.781C101.711 108.869 101.714 108.982 101.664 109.074C101.613 109.165 101.516 109.222 101.411 109.222ZM99.1128 108.644H100.889L99.1558 105.879H97.3808L99.1128 108.644Z" fill="#B3D3FF"/>
<path d="M111.873 62.6611L111.312 64.5792L104.797 86.8486L100.626 101.111L99.3164 105.59L101.412 108.933L102.722 104.454L106.893 90.1917L113.408 67.9222L113.969 66.0042L111.873 62.6611Z" fill="#80809A"/>
<path d="M101.412 109.222C101.313 109.222 101.22 109.172 101.167 109.086L99.0714 105.743C99.0269 105.674 99.0158 105.588 99.0394 105.508L111.596 62.5792C111.628 62.4695 111.721 62.3903 111.834 62.3736C111.946 62.3584 112.057 62.4097 112.119 62.507L114.214 65.85C114.259 65.9195 114.27 66.0056 114.246 66.0847L101.688 109.014C101.656 109.124 101.563 109.203 101.451 109.219C101.438 109.221 101.424 109.222 101.412 109.222ZM99.6297 105.546L101.314 108.235L113.655 66.0472L111.97 63.3584L99.6297 105.546Z" fill="#B3D3FF"/>
<path d="M111.873 62.6613L111.312 64.5793L104.796 86.8488L100.625 101.111L99.3158 105.59H96.8574L101.502 89.7182L109.416 62.6613H111.873Z" fill="#E4DBDB"/>
<path d="M99.3156 105.879H96.8587C96.767 105.879 96.6823 105.836 96.6281 105.764C96.574 105.692 96.5559 105.597 96.5823 105.51L101.225 89.6376L109.139 62.5806C109.175 62.457 109.288 62.3723 109.417 62.3723H111.874C111.966 62.3723 112.05 62.4154 112.105 62.4876C112.159 62.5598 112.177 62.6543 112.15 62.7418L99.5934 105.671C99.5573 105.795 99.4434 105.879 99.3156 105.879ZM97.2434 105.301H99.099L111.488 62.9501H109.632L101.778 89.7987L97.2434 105.301Z" fill="#B3D3FF"/>
<path d="M67.5014 44.3529C67.5028 44.3252 67.5028 44.2974 67.5028 44.2696C67.5028 44.2529 67.5014 44.2377 67.5 44.2224C67.4986 44.1974 67.4972 44.1738 67.4944 44.1502C67.4931 44.1335 67.4903 44.1168 67.4875 44.1002C67.4861 44.0849 67.4847 44.0696 67.4819 44.0543C67.4806 44.0488 67.4792 44.0446 67.4792 44.0404C67.4694 43.9877 67.4583 43.9349 67.4431 43.8849C67.4417 43.8821 67.4417 43.8793 67.4417 43.8765C67.4389 43.8668 67.4347 43.8585 67.4319 43.8502C67.4222 43.8196 67.4111 43.789 67.3986 43.7599C67.3958 43.7543 67.3944 43.7474 67.3917 43.7404C67.3875 43.7321 67.3833 43.7238 67.3792 43.7154C67.3694 43.6932 67.3583 43.6724 67.3472 43.6515C67.3431 43.6432 67.3389 43.6349 67.3347 43.6265C67.3264 43.6127 67.3181 43.5988 67.3097 43.5849L65.2139 40.2418C65.2278 40.2627 65.2389 40.2863 65.2514 40.3085C65.2625 40.3293 65.2736 40.3515 65.2833 40.3724C65.2903 40.3863 65.2972 40.4015 65.3028 40.4168C65.3153 40.446 65.3264 40.4765 65.3361 40.5071C65.3403 40.5182 65.3444 40.5293 65.3472 40.5418C65.3625 40.5918 65.375 40.6432 65.3833 40.6974C65.3875 40.7168 65.3903 40.7363 65.3931 40.7571C65.3958 40.7738 65.3972 40.7904 65.4 40.8071C65.4028 40.8307 65.4042 40.8557 65.4056 40.8793C65.4069 40.8946 65.4069 40.9113 65.4083 40.9265C65.4083 40.9543 65.4083 40.9821 65.4069 41.0099C65.4069 41.0238 65.4069 41.0363 65.4056 41.0502C65.4028 41.0918 65.3986 41.1349 65.3931 41.1779L65.125 43.146L67.2208 46.489L67.4889 44.521C67.4944 44.4779 67.4986 44.4363 67.5014 44.3932C67.5014 44.3807 67.5014 44.3668 67.5014 44.3529Z" fill="#80809A"/>
<path d="M67.2202 46.7779C67.1216 46.7779 67.0286 46.7279 66.9758 46.6418L64.8799 43.2987C64.8438 43.2418 64.8299 43.1737 64.8383 43.1057L65.1063 41.1376C65.1119 41.1015 65.1147 41.0668 65.1161 41.0321L65.1174 40.9987C65.1174 40.9765 65.1188 40.9543 65.1188 40.9321L65.1174 40.8932C65.1161 40.8737 65.1161 40.8543 65.1133 40.8348L65.1091 40.8071C65.1049 40.7793 65.1036 40.764 65.1008 40.7473C65.0924 40.7029 65.0827 40.6626 65.0716 40.6251L65.0619 40.5987C65.0536 40.5751 65.0452 40.5515 65.0355 40.5293C65.0299 40.5168 65.0258 40.5057 65.0202 40.4946C65.0119 40.4779 65.0049 40.4612 64.9952 40.4459C64.9813 40.4209 64.9758 40.4085 64.9674 40.396C64.8827 40.2612 64.923 40.0821 65.0591 39.9973C65.1938 39.9126 65.373 39.9529 65.4577 40.0876L67.5536 43.4307C67.5647 43.4473 67.5744 43.4654 67.5841 43.4821C67.5897 43.4918 67.5952 43.5029 67.6008 43.514C67.6147 43.539 67.6272 43.5654 67.6397 43.5918C67.6452 43.6001 67.6508 43.6112 67.6549 43.6223C67.6577 43.6293 67.6647 43.6473 67.6674 43.6543C67.6786 43.6821 67.6924 43.7182 67.7049 43.7557C67.7077 43.764 67.7133 43.7751 67.7161 43.7862C67.7174 43.7918 67.7202 43.7987 67.7216 43.8057C67.7369 43.8584 67.7508 43.9154 67.7619 43.9751C67.7647 43.9848 67.7661 43.9946 67.7674 44.0043C67.7702 44.0168 67.7716 44.0307 67.773 44.046L67.4883 44.0959L67.7758 44.0668C67.7786 44.0834 67.7799 44.1001 67.7827 44.1182C67.7855 44.1459 67.7869 44.1751 67.7883 44.2043C67.7897 44.2321 67.7911 44.2473 67.7911 44.2626C67.7911 44.2932 67.7911 44.3265 67.7897 44.3598V44.3612V44.3723C67.7897 44.3848 67.7897 44.3973 67.7883 44.4098C67.7855 44.4585 67.7813 44.5084 67.7744 44.5598L67.5063 46.5279C67.4897 46.6487 67.3994 46.746 67.2813 46.771C67.2605 46.7765 67.2397 46.7779 67.2202 46.7779ZM65.4244 43.0807L67.0411 45.6598L67.2022 44.4821C67.2077 44.4459 67.2105 44.4112 67.2119 44.3765L67.2133 44.3432C67.2147 44.3209 67.2147 44.2973 67.2147 44.2751L67.2133 44.2362C67.2119 44.2168 67.2119 44.1973 67.2091 44.1779L67.2008 44.114C67.2008 44.1126 67.1994 44.1029 67.1966 44.0932C67.1883 44.046 67.1786 44.0043 67.1674 43.9682C67.1674 43.9668 67.1661 43.9654 67.1661 43.9626C67.1633 43.9557 67.1605 43.9487 67.1577 43.9418C67.1494 43.9182 67.1411 43.8946 67.1313 43.8723C67.1299 43.8682 67.1272 43.8626 67.1244 43.8557C67.1216 43.8487 67.1174 43.8404 67.1161 43.839C67.1077 43.8223 67.0994 43.8057 67.0911 43.789C67.0883 43.7848 67.0813 43.7696 67.0786 43.7654C67.0758 43.7598 67.0702 43.7501 67.0633 43.7404L65.6438 41.4751L65.4244 43.0807Z" fill="#B3D3FF"/>
<path d="M64.3186 39.7445C65.0199 39.7445 65.5019 40.3862 65.3936 41.1778L65.1255 43.1459L63.9144 52.0348C63.8061 52.8278 63.1505 53.4681 62.4491 53.4681H60.0922C59.3908 53.4681 58.9088 52.8265 59.0172 52.0348L60.2283 43.1459L60.4963 41.1778C60.6047 40.3848 61.2602 39.7445 61.9616 39.7445H64.3186Z" fill="#B3D3FF"/>
<path d="M62.4468 53.757H60.0898C59.6968 53.757 59.3384 53.5958 59.0829 53.3028C58.7898 52.9681 58.6607 52.4917 58.7287 51.9958L60.2079 41.1389C60.3371 40.1945 61.1065 39.4556 61.9593 39.4556H64.3162C64.7093 39.4556 65.0676 39.6167 65.3232 39.9097C65.6162 40.2445 65.7454 40.7208 65.6773 41.2167L64.1982 52.0736C64.0704 53.0181 63.3009 53.757 62.4468 53.757ZM61.9607 40.0333C61.3996 40.0333 60.8704 40.5639 60.7815 41.2167L59.3023 52.0736C59.2579 52.4042 59.3357 52.7125 59.519 52.9222C59.6662 53.0903 59.8634 53.1792 60.0912 53.1792H62.4482C63.0093 53.1792 63.5384 52.6486 63.6273 51.9958L65.1065 41.1389C65.1509 40.8083 65.0732 40.5 64.8898 40.2903C64.7426 40.1222 64.5454 40.0333 64.3176 40.0333H61.9607Z" fill="#B3D3FF"/>
<path d="M53.0175 62.6612H48.4049C48.0674 62.6612 47.7563 62.5876 47.48 62.4528C47.4008 62.4139 47.3258 62.3709 47.2522 62.3237C47.1063 62.2278 46.973 62.1139 46.855 61.9834C46.7661 61.8862 46.6855 61.7792 46.6133 61.6639L48.7091 65.007C49.0924 65.6181 49.73 66.0042 50.5008 66.0042H55.1133L53.0175 62.6612Z" fill="#555578"/>
<path d="M55.1126 66.2931H50.5001C49.657 66.2931 48.9154 65.8806 48.464 65.1597L46.3682 61.8167C46.2834 61.6819 46.3251 61.5028 46.4598 61.4181C46.5945 61.3333 46.7737 61.3736 46.8584 61.5097L46.8598 61.5111C46.9223 61.6097 46.9932 61.7028 47.0695 61.7875C47.1723 61.9 47.2876 61.9986 47.4126 62.0806C47.4751 62.1222 47.5404 62.1597 47.6084 62.1917C47.8529 62.3111 48.1209 62.3708 48.407 62.3708H53.0195C53.1195 62.3708 53.2112 62.4222 53.264 62.5069L55.3598 65.85C55.4154 65.9389 55.4182 66.0514 55.3682 66.1431C55.3182 66.2347 55.2182 66.2931 55.1126 66.2931ZM47.6959 62.8472L48.9529 64.8542C49.2959 65.4014 49.8598 65.7167 50.4987 65.7167H54.589L52.8557 62.9514H48.4029C48.1584 62.95 47.9223 62.9153 47.6959 62.8472Z" fill="#B3D3FF"/>
<path d="M108.558 44.3529C108.559 44.3251 108.559 44.2973 108.559 44.2695C108.559 44.2529 108.558 44.2376 108.557 44.2209C108.555 44.1973 108.554 44.1723 108.551 44.1487C108.55 44.132 108.547 44.1154 108.544 44.0987C108.543 44.0834 108.541 44.0681 108.539 44.0542C108.537 44.0487 108.536 44.0445 108.536 44.039C108.526 43.9862 108.515 43.9348 108.5 43.8848C108.498 43.882 108.498 43.8792 108.498 43.8765C108.496 43.8681 108.491 43.8598 108.489 43.8501C108.479 43.8195 108.468 43.789 108.455 43.7598C108.452 43.7542 108.451 43.7473 108.448 43.7404C108.444 43.732 108.44 43.7237 108.436 43.7154C108.426 43.6931 108.415 43.6723 108.404 43.6501C108.4 43.6417 108.396 43.6334 108.391 43.6251C108.383 43.6112 108.375 43.5973 108.366 43.5834L106.271 40.2404C106.284 40.2612 106.296 40.2848 106.308 40.307C106.319 40.3279 106.33 40.3501 106.34 40.3723C106.347 40.3862 106.354 40.4015 106.359 40.4167C106.372 40.4459 106.383 40.4765 106.393 40.5084C106.397 40.5195 106.401 40.5306 106.404 40.5417C106.419 40.5917 106.432 40.6431 106.44 40.6973C106.444 40.7167 106.447 40.7362 106.45 40.757C106.452 40.7737 106.454 40.7904 106.457 40.807C106.459 40.8306 106.461 40.8556 106.462 40.8792C106.464 40.8959 106.465 40.9112 106.465 40.9279C106.465 40.9556 106.465 40.9834 106.464 41.0112C106.464 41.0251 106.464 41.039 106.462 41.0529C106.459 41.0945 106.455 41.1376 106.45 41.1792L106.182 43.1473L108.277 46.4904L108.546 44.5223C108.551 44.4792 108.555 44.4376 108.558 44.3959C108.558 44.3806 108.558 44.3667 108.558 44.3529Z" fill="#80809A"/>
<path d="M108.277 46.7779C108.178 46.7779 108.085 46.7279 108.032 46.6418L105.937 43.2987C105.9 43.2418 105.887 43.1737 105.895 43.1057L106.163 41.1376C106.167 41.1029 106.171 41.0668 106.173 41.0335V41.0001C106.174 40.9765 106.174 40.9543 106.174 40.9321L106.171 40.8932C106.17 40.8737 106.17 40.8543 106.167 40.8362L106.164 40.8085C106.16 40.7807 106.159 40.764 106.156 40.7487C106.149 40.7071 106.139 40.6654 106.127 40.6265C106.127 40.6251 106.119 40.6043 106.119 40.6029C106.11 40.5779 106.102 40.5543 106.092 40.5307C106.088 40.5196 106.082 40.5098 106.078 40.4987C106.07 40.4807 106.062 40.464 106.053 40.4473C106.042 40.4251 106.034 40.4112 106.025 40.3973C105.941 40.2626 105.982 40.0835 106.117 40.0001C106.252 39.9154 106.43 39.9571 106.516 40.0918L108.612 43.4348C108.623 43.4529 108.632 43.4696 108.644 43.4876C108.648 43.4959 108.655 43.5071 108.66 43.5196C108.673 43.5432 108.687 43.5696 108.699 43.5973C108.705 43.6071 108.71 43.6182 108.714 43.6293C108.717 43.6362 108.724 43.6529 108.725 43.6598C108.738 43.689 108.752 43.7265 108.764 43.764C108.767 43.771 108.771 43.7821 108.775 43.7932C108.777 43.7987 108.78 43.8071 108.781 43.8154C108.796 43.864 108.809 43.9209 108.821 43.9834C108.823 43.9904 108.824 43.9973 108.825 44.0043C108.828 44.0237 108.831 44.039 108.832 44.0529C108.837 44.0834 108.839 44.1029 108.841 44.1223C108.844 44.1515 108.845 44.1807 108.846 44.2098C108.848 44.2335 108.849 44.2501 108.849 44.2682C108.849 44.2987 108.849 44.3321 108.848 44.364V44.3737C108.848 44.3862 108.848 44.4001 108.846 44.4126C108.844 44.4612 108.839 44.5112 108.832 44.5612L108.563 46.5279C108.546 46.6487 108.456 46.746 108.338 46.771C108.317 46.7765 108.298 46.7779 108.277 46.7779ZM106.482 43.0807L108.099 45.6598L108.26 44.4821C108.264 44.4473 108.269 44.4112 108.27 44.3779V44.3446V44.3432C108.271 44.3209 108.271 44.2987 108.271 44.2765L108.27 44.2515C108.27 44.2501 108.269 44.2376 108.269 44.2376C108.267 44.2182 108.267 44.1987 108.264 44.1807L108.256 44.1168C108.256 44.1154 108.255 44.1057 108.252 44.0959C108.244 44.0487 108.234 44.0085 108.223 43.971C108.223 43.9696 108.221 43.9668 108.221 43.9654C108.219 43.9584 108.216 43.9515 108.214 43.9446C108.206 43.9196 108.198 43.896 108.188 43.8737C108.187 43.871 108.184 43.864 108.182 43.8571C108.178 43.8501 108.174 43.8404 108.173 43.8376C108.166 43.8223 108.157 43.8057 108.149 43.789C108.146 43.7848 108.139 43.7696 108.138 43.7654C108.134 43.7584 108.128 43.7487 108.121 43.7376L106.702 41.4723L106.482 43.0807Z" fill="#B3D3FF"/>
<path d="M105.375 39.7445C106.077 39.7445 106.56 40.3862 106.452 41.1778L106.184 43.1459L104.972 52.0348C104.864 52.8278 104.207 53.4681 103.506 53.4681H101.149C100.447 53.4681 99.9655 52.8265 100.074 52.0348L101.285 43.1459L101.553 41.1778C101.661 40.3848 102.318 39.7445 103.018 39.7445H105.375Z" fill="#B3D3FF"/>
<path d="M103.503 53.757H101.146C100.753 53.757 100.395 53.5959 100.14 53.3014C99.8465 52.9667 99.7173 52.4903 99.7854 51.9945L101.265 41.1376C101.391 40.2098 102.177 39.4542 103.016 39.4542H105.373C105.766 39.4542 106.124 39.6153 106.381 39.9098C106.674 40.2445 106.803 40.7209 106.735 41.2167L105.256 52.0737C105.128 53.0181 104.358 53.757 103.503 53.757ZM103.017 40.0334C102.466 40.0334 101.926 40.5751 101.838 41.2167L100.359 52.0737C100.315 52.4028 100.394 52.7126 100.576 52.9223C100.723 53.0903 100.92 53.1792 101.148 53.1792H103.505C104.058 53.1792 104.598 52.6376 104.685 51.9959L106.165 41.1389C106.209 40.8098 106.13 40.5001 105.948 40.2903C105.801 40.1223 105.603 40.0334 105.376 40.0334H103.017Z" fill="#B3D3FF"/>
<path d="M109.416 62.6613L111.511 66.0043H55.1134L53.0176 62.6613H109.416Z" fill="#711E00"/>
<path d="M111.51 66.2931H55.1127C55.0127 66.2931 54.921 66.2418 54.8682 66.157L52.7724 62.814C52.7168 62.7251 52.714 62.6126 52.764 62.5209C52.814 62.4293 52.9113 62.3723 53.0168 62.3723H109.414C109.514 62.3723 109.606 62.4237 109.658 62.5084L111.754 65.8515C111.81 65.9404 111.813 66.0529 111.763 66.1445C111.713 66.2362 111.615 66.2931 111.51 66.2931ZM55.2724 65.7154H110.988L109.254 62.9501H53.539L55.2724 65.7154Z" fill="#B3D3FF"/>
<path d="M119.616 49.0209C119.618 48.9654 119.62 48.9098 119.619 48.8556C119.619 48.8237 119.616 48.7918 119.615 48.7598C119.612 48.7112 119.609 48.6626 119.605 48.614C119.602 48.5806 119.597 48.5487 119.593 48.5154C119.588 48.4848 119.586 48.4543 119.582 48.4251C119.579 48.4084 119.575 48.3918 119.572 48.3751C119.568 48.3515 119.563 48.3293 119.558 48.307C119.547 48.2543 119.534 48.2029 119.52 48.1515C119.515 48.132 119.511 48.114 119.505 48.0945C119.502 48.0862 119.501 48.0793 119.498 48.0709C119.493 48.0529 119.484 48.0362 119.479 48.0181C119.458 47.957 119.436 47.8959 119.411 47.8362C119.405 47.8237 119.402 47.8098 119.397 47.7987C119.39 47.782 119.38 47.7654 119.372 47.7487C119.351 47.7043 119.33 47.6612 119.307 47.6195C119.298 47.6029 119.291 47.5862 119.282 47.5709C119.265 47.5431 119.248 47.5154 119.232 47.4876L117.136 44.1445C117.162 44.1876 117.186 44.232 117.211 44.2779C117.233 44.3195 117.255 44.364 117.276 44.407C117.29 44.4362 117.302 44.4654 117.315 44.4945C117.34 44.5529 117.362 44.614 117.383 44.6765C117.391 44.7015 117.401 44.7265 117.409 44.7529C117.415 44.7723 117.419 44.7904 117.425 44.8098C117.438 44.8612 117.451 44.9126 117.462 44.9654C117.466 44.9876 117.472 45.0112 117.476 45.0334C117.484 45.0793 117.491 45.1265 117.498 45.1751C117.502 45.2084 117.508 45.2404 117.511 45.2737C117.515 45.3209 117.518 45.3695 117.52 45.4195C117.522 45.4515 117.525 45.4834 117.525 45.5154C117.526 45.5695 117.525 45.6251 117.522 45.6806C117.52 45.7084 117.522 45.7348 117.52 45.7626C117.515 45.8459 117.508 45.9306 117.495 46.0168L115.618 59.7959C115.605 59.8834 115.589 59.9709 115.57 60.057C115.565 60.0793 115.561 60.1015 115.555 60.1251C115.537 60.2015 115.516 60.2779 115.493 60.3529C115.49 60.3612 115.487 60.3709 115.484 60.3793C115.458 60.4612 115.427 60.5418 115.395 60.6223C115.387 60.6431 115.379 60.664 115.369 60.6848C115.341 60.7515 115.311 60.8168 115.279 60.8806C115.272 60.8945 115.265 60.9098 115.258 60.9237C115.243 60.9543 115.223 60.9834 115.207 61.014C115.173 61.0751 115.14 61.1348 115.102 61.1931C115.079 61.232 115.052 61.2681 115.027 61.3056C114.998 61.3473 114.97 61.389 114.94 61.4293C114.911 61.4681 114.879 61.5056 114.848 61.5431C114.82 61.5765 114.794 61.6112 114.765 61.6431C114.732 61.6806 114.697 61.7168 114.661 61.7529C114.633 61.782 114.605 61.8126 114.576 61.8404C114.541 61.8751 114.504 61.9056 114.466 61.939C114.434 61.9668 114.404 61.9959 114.372 62.0223C114.339 62.0501 114.304 62.0737 114.269 62.1001C114.23 62.1293 114.19 62.1598 114.15 62.1876C114.12 62.207 114.09 62.2251 114.059 62.2431C114.007 62.2765 113.955 62.3084 113.901 62.3376C113.836 62.3737 113.77 62.4084 113.702 62.4376C113.702 62.4376 113.702 62.4376 113.701 62.4376C113.632 62.4681 113.561 62.4959 113.488 62.5209C113.461 62.5306 113.433 62.539 113.404 62.5487C113.354 62.564 113.302 62.5793 113.251 62.5918C113.222 62.5987 113.193 62.6056 113.163 62.6126C113.109 62.6237 113.055 62.632 113 62.6404C112.975 62.6445 112.948 62.6487 112.923 62.6515C112.843 62.6598 112.762 62.6654 112.682 62.6654H111.869H109.412L111.508 66.0084H113.965H114.777C114.858 66.0084 114.938 66.0029 115.019 65.9945C115.045 65.9918 115.07 65.9876 115.095 65.9834C115.15 65.9765 115.205 65.9668 115.259 65.9556C115.288 65.9501 115.318 65.9431 115.347 65.9348C115.398 65.9223 115.45 65.9084 115.5 65.8918C115.527 65.8834 115.557 65.8737 115.584 65.864C115.6 65.8584 115.615 65.8556 115.629 65.8501C115.686 65.8293 115.741 65.8056 115.797 65.782C115.797 65.782 115.797 65.782 115.798 65.782C115.854 65.757 115.909 65.7306 115.963 65.7015C115.975 65.6959 115.986 65.6876 115.997 65.682C116.051 65.6529 116.102 65.6209 116.155 65.5876C116.179 65.5737 116.202 65.5612 116.225 65.5459C116.232 65.5418 116.238 65.5362 116.244 65.5306C116.284 65.5029 116.323 65.4737 116.362 65.4431C116.391 65.4223 116.42 65.4029 116.448 65.3793C116.454 65.3751 116.459 65.3695 116.465 65.364C116.497 65.3376 116.527 65.3084 116.559 65.2806C116.59 65.2543 116.62 65.2293 116.65 65.2015C116.657 65.1959 116.662 65.189 116.669 65.182C116.698 65.1543 116.726 65.1237 116.754 65.0945C116.782 65.0668 116.809 65.039 116.837 65.0098C116.844 65.0015 116.851 64.9931 116.858 64.9848C116.887 64.9529 116.914 64.9181 116.941 64.8848C116.965 64.8556 116.99 64.8293 117.012 64.8001C117.019 64.7904 117.026 64.7806 117.033 64.7709C117.063 64.7306 117.091 64.689 117.119 64.6473C117.138 64.6181 117.161 64.5918 117.179 64.5626C117.184 64.5543 117.189 64.5445 117.194 64.5362C117.23 64.4779 117.265 64.4181 117.298 64.357C117.312 64.332 117.327 64.3098 117.34 64.2848C117.343 64.2793 117.345 64.2723 117.348 64.2668C117.355 64.2529 117.362 64.2376 117.369 64.2237C117.401 64.1598 117.432 64.0945 117.459 64.0279C117.468 64.007 117.477 63.9862 117.486 63.9654C117.491 63.9501 117.5 63.9348 117.505 63.9195C117.53 63.8543 117.554 63.789 117.575 63.7223C117.577 63.714 117.58 63.7043 117.583 63.6959C117.607 63.6209 117.626 63.5445 117.645 63.4681C117.651 63.4459 117.657 63.4237 117.661 63.4001C117.679 63.314 117.695 63.2279 117.708 63.139L119.586 49.3598C119.597 49.2737 119.605 49.189 119.611 49.1056C119.616 49.0751 119.615 49.0487 119.616 49.0209Z" fill="#555578"/>
<path d="M114.78 66.2932H111.509C111.409 66.2932 111.317 66.2418 111.265 66.157L109.169 62.814C109.113 62.7251 109.111 62.6126 109.161 62.5209C109.212 62.4293 109.308 62.3723 109.413 62.3723H112.684C112.748 62.3723 112.817 62.3682 112.897 62.3598C112.909 62.3584 112.92 62.357 112.933 62.3543L112.963 62.3501C113.012 62.3432 113.059 62.3362 113.108 62.3265C113.134 62.3209 113.159 62.3154 113.184 62.3084C113.23 62.2973 113.274 62.2848 113.319 62.2709C113.349 62.2612 113.372 62.2543 113.394 62.2473C113.47 62.2209 113.53 62.1973 113.584 62.1737C113.586 62.1737 113.587 62.1723 113.587 62.1723C113.647 62.1459 113.705 62.1154 113.762 62.0834C113.811 62.057 113.858 62.0279 113.905 61.9973L113.94 61.9765C113.955 61.9668 113.97 61.957 113.986 61.9473C114.015 61.9279 114.042 61.9057 114.072 61.8848L114.127 61.8432C114.148 61.8279 114.169 61.8126 114.188 61.7973C114.208 61.7807 114.227 61.764 114.247 61.7473L114.298 61.7029C114.324 61.6807 114.351 61.657 114.376 61.6334C114.394 61.6154 114.413 61.5959 114.431 61.5765L114.465 61.5418C114.494 61.5126 114.522 61.4834 114.549 61.4529C114.57 61.4293 114.59 61.4057 114.608 61.382L114.626 61.3598C114.661 61.3182 114.686 61.2876 114.709 61.2543C114.733 61.2223 114.755 61.1904 114.777 61.157L114.805 61.1154C114.823 61.0904 114.841 61.064 114.858 61.0376C114.891 60.9834 114.923 60.9293 114.954 60.8737L114.976 60.8348C114.984 60.8209 114.992 60.807 114.999 60.7918L115.019 60.7515C115.048 60.6932 115.076 60.6334 115.101 60.5723L115.124 60.5154C115.156 60.4348 115.184 60.3612 115.205 60.2931C115.205 60.2904 115.211 60.2723 115.212 60.2695C115.234 60.1987 115.252 60.1293 115.269 60.0584L115.283 59.9973C115.302 59.9057 115.316 59.8307 115.326 59.7584L117.204 45.9793C117.213 45.9043 117.222 45.8265 117.226 45.7473C117.226 45.7348 117.227 45.7209 117.227 45.7084V45.6723C117.229 45.6209 117.23 45.5709 117.23 45.5209C117.23 45.5015 117.229 45.4834 117.227 45.464L117.226 45.4362C117.223 45.3904 117.222 45.3473 117.217 45.3043C117.215 45.2807 117.212 45.257 117.208 45.2334L117.205 45.2168C117.199 45.1737 117.194 45.132 117.186 45.0904C117.181 45.0695 117.177 45.0501 117.173 45.0293C117.163 44.982 117.151 44.9362 117.138 44.8904L117.124 44.839C117.122 44.8279 117.117 44.8168 117.113 44.8057L117.102 44.7737C117.084 44.7182 117.063 44.664 117.042 44.6112C117.031 44.5848 117.02 44.5598 117.008 44.5348C116.99 44.4959 116.97 44.457 116.949 44.4195L116.94 44.4015C116.922 44.3682 116.904 44.3348 116.884 44.3029C116.799 44.1682 116.841 43.989 116.976 43.9043C117.112 43.8195 117.29 43.8598 117.374 43.9959L119.47 47.339C119.49 47.3695 119.508 47.4015 119.526 47.4334C119.534 47.4487 119.542 47.464 119.549 47.4793C119.58 47.5362 119.604 47.5848 119.627 47.6348C119.64 47.6584 119.648 47.6751 119.655 47.6918C119.661 47.7029 119.666 47.7182 119.67 47.7334C119.698 47.7987 119.722 47.8654 119.745 47.9348C119.755 47.9598 119.762 47.9765 119.767 47.9932C119.769 47.9973 119.773 48.014 119.774 48.0182L119.791 48.0807C119.806 48.1376 119.82 48.1945 119.833 48.2529C119.838 48.2793 119.844 48.3029 119.848 48.3279L119.851 48.3432C119.854 48.357 119.856 48.3709 119.859 48.3848C119.863 48.407 119.866 48.4307 119.869 48.4557L119.876 48.5084C119.88 48.5362 119.883 48.564 119.887 48.5932C119.892 48.6445 119.895 48.6987 119.898 48.7515L119.899 48.7793C119.901 48.8057 119.902 48.8307 119.904 48.857C119.905 48.9154 119.904 48.9751 119.901 49.0362C119.901 49.0362 119.901 49.0362 119.901 49.0376V49.0654C119.901 49.0862 119.901 49.107 119.899 49.1279C119.894 49.2223 119.886 49.3154 119.873 49.4043L117.995 63.1834C117.984 63.2682 117.967 63.3584 117.944 63.4668C117.938 63.4918 117.933 63.5168 117.927 63.5418C117.908 63.6237 117.886 63.7057 117.861 63.7876L117.852 63.8182C117.83 63.889 117.805 63.9598 117.777 64.0307C117.773 64.0432 117.767 64.0543 117.763 64.0654L117.733 64.1404C117.699 64.2195 117.666 64.2904 117.631 64.3598L117.598 64.4265C117.588 64.4445 117.577 64.464 117.566 64.482L117.554 64.5043C117.517 64.5695 117.48 64.6348 117.441 64.6973C117.436 64.707 117.43 64.7182 117.423 64.7279C117.411 64.7487 117.395 64.7695 117.38 64.7904L117.348 64.8362C117.322 64.8751 117.294 64.914 117.266 64.9515C117.258 64.964 117.251 64.9737 117.244 64.9834C117.227 65.0057 117.209 65.0251 117.192 65.0459L117.152 65.0945C117.129 65.1237 117.104 65.1543 117.079 65.182C117.07 65.1932 117.063 65.2015 117.056 65.2098C117.036 65.2334 117.015 65.2543 116.992 65.2751L116.944 65.3251C116.92 65.3487 116.898 65.3737 116.873 65.3959C116.867 65.4015 116.861 65.4098 116.852 65.4168C116.83 65.4376 116.808 65.457 116.784 65.4765L116.73 65.5237C116.704 65.5473 116.679 65.5695 116.651 65.5918C116.647 65.5959 116.64 65.6015 116.633 65.607C116.611 65.6251 116.59 65.6404 116.567 65.6557L116.515 65.6945C116.48 65.7209 116.445 65.7473 116.409 65.7709C116.404 65.7751 116.395 65.782 116.386 65.7876C116.369 65.7987 116.349 65.8098 116.33 65.8209L116.311 65.832C116.254 65.8682 116.197 65.9029 116.137 65.9348C116.124 65.9432 116.113 65.9501 116.101 65.9557C116.04 65.9876 115.979 66.0168 115.917 66.0445C115.916 66.0445 115.915 66.0459 115.913 66.0459C115.854 66.0723 115.792 66.0973 115.73 66.1209C115.717 66.1251 115.704 66.1307 115.69 66.1348C115.652 66.1473 115.623 66.157 115.594 66.1654C115.531 66.1848 115.474 66.2001 115.417 66.2154C115.386 66.2237 115.354 66.2307 115.32 66.2376C115.261 66.2501 115.199 66.2598 115.137 66.2682L115.113 66.2709C115.092 66.2737 115.072 66.2779 115.049 66.2793C114.954 66.2876 114.865 66.2932 114.78 66.2932ZM111.67 65.7154H114.78C114.844 65.7154 114.913 65.7112 114.992 65.7029C115.005 65.7015 115.017 65.7001 115.029 65.6973L115.059 65.6932C115.108 65.6862 115.155 65.6793 115.204 65.6695C115.23 65.664 115.255 65.6584 115.28 65.6515C115.326 65.6404 115.37 65.6279 115.416 65.614C115.445 65.6043 115.469 65.5973 115.491 65.5904L115.523 65.5807C115.583 65.5598 115.631 65.539 115.681 65.5168C115.683 65.5168 115.684 65.5154 115.684 65.5154C115.733 65.4932 115.783 65.4695 115.83 65.4445C115.838 65.439 115.849 65.432 115.859 65.4265C115.908 65.4001 115.955 65.3709 116.002 65.3418C116.016 65.3334 116.03 65.3251 116.044 65.3168C116.051 65.3126 116.059 65.3084 116.066 65.3043C116.069 65.3015 116.076 65.2959 116.083 65.2918C116.112 65.2723 116.138 65.2515 116.166 65.2307L116.233 65.182C116.245 65.1723 116.258 65.164 116.27 65.1543L116.286 65.1404C116.306 65.1237 116.324 65.107 116.344 65.0904L116.409 65.0334C116.424 65.0209 116.44 65.007 116.455 64.9932C116.458 64.9904 116.467 64.9793 116.472 64.9765C116.491 64.9584 116.508 64.9404 116.526 64.9223L116.584 64.8626C116.598 64.8487 116.613 64.8334 116.626 64.8195C116.633 64.8112 116.638 64.8029 116.645 64.7959C116.665 64.7737 116.684 64.7501 116.704 64.7265L116.754 64.6668C116.765 64.6543 116.776 64.6404 116.787 64.6265C116.792 64.6168 116.799 64.6084 116.805 64.6001C116.829 64.5682 116.851 64.5362 116.873 64.5043L116.915 64.4459C116.923 64.4334 116.933 64.4223 116.941 64.4084C116.945 64.4001 116.951 64.3918 116.956 64.3834C116.99 64.3307 117.02 64.2751 117.052 64.2195C117.061 64.2057 117.069 64.1918 117.076 64.1779C117.081 64.1695 117.086 64.1612 117.09 64.1529L117.117 64.0959C117.147 64.0362 117.174 63.9765 117.201 63.9154L117.242 63.8168C117.266 63.757 117.287 63.6973 117.306 63.6362L117.315 63.6084C117.336 63.5432 117.354 63.4723 117.37 63.4015C117.376 63.3807 117.38 63.3598 117.384 63.3404C117.404 63.2473 117.417 63.1709 117.427 63.1015L119.305 49.3223C119.315 49.2473 119.323 49.1695 119.327 49.0904C119.327 49.0779 119.327 49.0668 119.329 49.0543L119.33 49.0154C119.331 48.9654 119.333 48.9154 119.333 48.8668C119.333 48.8473 119.331 48.8293 119.33 48.8126L119.329 48.7793C119.326 48.7362 119.324 48.6918 119.32 48.6487C119.317 48.6265 119.315 48.6057 119.312 48.5848L119.304 48.5195C119.302 48.5057 119.301 48.4918 119.298 48.4779L119.276 48.3695C119.266 48.3237 119.255 48.2779 119.242 48.232L119.229 48.1807C119.227 48.1779 119.224 48.164 119.223 48.1598C119.215 48.139 119.209 48.1251 119.205 48.1112C119.187 48.0584 119.167 48.0043 119.145 47.9515C119.14 47.939 119.136 47.9279 119.131 47.9154C119.122 47.8973 119.116 47.8862 119.111 47.8751C119.092 47.8348 119.073 47.7973 119.052 47.7598C119.045 47.7473 119.04 47.7362 119.034 47.7237C119.016 47.6918 119.002 47.6668 118.987 47.6432L117.809 45.7654C117.809 45.7709 117.809 45.7751 117.808 45.7807C117.802 45.8751 117.794 45.9681 117.781 46.057L115.904 59.8362C115.892 59.9223 115.874 60.0154 115.852 60.1195C115.847 60.1432 115.841 60.1682 115.836 60.1918C115.816 60.2751 115.794 60.3584 115.769 60.439L115.762 60.464C115.734 60.5501 115.704 60.6362 115.665 60.7307L115.641 60.7862C115.606 60.8682 115.573 60.939 115.54 61.0084L115.516 61.057C115.505 61.0793 115.492 61.1015 115.479 61.1251L115.462 61.1543C115.426 61.2195 115.39 61.2848 115.349 61.3473C115.329 61.3807 115.306 61.4126 115.284 61.4445L115.258 61.4834C115.23 61.5237 115.204 61.5626 115.174 61.6015C115.145 61.6404 115.115 61.6779 115.084 61.7154L115.059 61.7459C115.036 61.7765 115.011 61.8057 114.984 61.8348C114.952 61.8723 114.917 61.907 114.883 61.9432L114.852 61.9751C114.829 62.0001 114.805 62.0251 114.78 62.0487C114.748 62.0793 114.716 62.1084 114.683 62.1376L114.637 62.1793C114.611 62.2029 114.586 62.2251 114.558 62.2473C114.531 62.2695 114.504 62.2904 114.474 62.3112L114.424 62.3487C114.388 62.3765 114.352 62.4029 114.315 62.4279C114.292 62.4432 114.269 62.4584 114.245 62.4723L114.217 62.489C114.161 62.5251 114.102 62.5598 114.044 62.5932C113.98 62.6279 113.905 62.6682 113.826 62.7029C113.822 62.7043 113.817 62.707 113.813 62.7084C113.742 62.739 113.673 62.7668 113.591 62.7959C113.562 62.8057 113.534 62.8154 113.505 62.8237C113.441 62.8432 113.384 62.8598 113.327 62.8737C113.295 62.882 113.263 62.889 113.23 62.8959C113.169 62.9084 113.108 62.9182 113.047 62.9265L113.023 62.9293C113.002 62.932 112.981 62.9348 112.961 62.9376C112.862 62.9473 112.773 62.9529 112.688 62.9529H109.94L111.67 65.7154Z" fill="#B3D3FF"/>
<path d="M64.9669 76.1959L67.0628 79.539H51.1544L49.0586 76.1959H64.9669Z" fill="#787070"/>
<path d="M67.062 79.8278H51.1537C51.0537 79.8278 50.962 79.7764 50.9092 79.6917L48.8134 76.3486C48.7578 76.2598 48.7551 76.1473 48.8051 76.0556C48.8551 75.9639 48.9523 75.907 49.0578 75.907H64.9662C65.0662 75.907 65.1578 75.9584 65.2106 76.0431L67.3064 79.3861C67.362 79.475 67.3648 79.5875 67.3148 79.6792C67.2648 79.7709 67.1676 79.8278 67.062 79.8278ZM51.3134 79.25H66.5398L64.8064 76.4848H49.5801L51.3134 79.25Z" fill="#B3D3FF"/>
<path d="M111.51 66.0042L109.415 62.6611L101.508 89.6931L96.8584 105.59L96.0195 108.457L98.114 111.8L98.9529 108.933L103.6 93.0486L111.51 66.0042Z" fill="#80809A"/>
<path d="M98.2106 112.499L95.7051 108.5L101.452 88.8556L109.318 61.9625L111.823 65.9611L111.787 66.0861L103.877 93.1306L98.2106 112.499ZM96.3315 108.414L98.0162 111.103L111.195 66.0486L109.511 63.3597L101.563 90.532L96.3315 108.414Z" fill="#B3D3FF"/>
<path d="M101.483 89.7321L96.8583 105.59L96.0194 108.457H79.4277L101.483 89.7321Z" fill="#80809A"/>
<path d="M96.0189 108.746H79.4272C79.3064 108.746 79.198 108.671 79.1564 108.557C79.1147 108.443 79.148 108.315 79.2411 108.238L101.297 89.5126C101.394 89.4307 101.534 89.4209 101.641 89.4904C101.748 89.5598 101.797 89.6918 101.762 89.814L97.1369 105.672L96.298 108.54C96.2592 108.661 96.1467 108.746 96.0189 108.746ZM80.2133 108.168H95.8022L96.58 105.508L100.936 90.5751L80.2133 108.168Z" fill="#B3D3FF"/>
<path d="M53.0169 62.6613H109.416L101.502 89.7182L84.9058 89.7321L79.428 108.457H39.6211L42.36 99.0946H58.2683L64.9669 76.196H49.0586L53.0169 62.6613Z" fill="#B3D3FF"/>
<path d="M79.4273 108.746H39.6204C39.5301 108.746 39.444 108.703 39.3898 108.631C39.3357 108.558 39.3176 108.464 39.344 108.376L42.0829 99.014C42.119 98.8904 42.2315 98.8057 42.3607 98.8057H58.0523L64.5815 76.4848H49.0579C48.9676 76.4848 48.8815 76.4418 48.8273 76.3695C48.7732 76.2973 48.7551 76.2029 48.7815 76.1154L52.7412 62.5806C52.7773 62.457 52.8898 62.3723 53.019 62.3723H109.416C109.508 62.3723 109.593 62.4154 109.647 62.4876C109.701 62.5598 109.719 62.6543 109.693 62.7418L101.779 89.7987C101.743 89.9223 101.63 90.007 101.502 90.007L85.1232 90.0209L79.7051 108.539C79.6676 108.661 79.5551 108.746 79.4273 108.746ZM40.0065 108.168H79.2107L84.6287 89.6501C84.6648 89.5265 84.7773 89.4418 84.9051 89.4418L101.284 89.4279L109.029 62.9487H53.2329L49.4426 75.9057H64.9662C65.0565 75.9057 65.1426 75.9487 65.1968 76.0209C65.251 76.0931 65.269 76.1876 65.2426 76.2751L58.544 99.1737C58.5079 99.2973 58.3954 99.382 58.2662 99.382H42.576L40.0065 108.168Z" fill="#B3D3FF"/>
<path d="M67.0973 62.5292L67.0584 62.6611L66.9459 63.0445L62.1918 79.2958L62.0404 79.8111L57.2876 96.0625L57.1362 96.5792L53.6612 108.457H53.207L56.682 96.5792L56.8334 96.0639L61.5862 79.8125L61.7376 79.2972L66.4918 63.0445L66.6029 62.6611L66.6418 62.5292H67.0973Z" fill="#B3D3FF"/>
<path d="M81.8691 62.5139L81.826 62.6611L81.719 63.0292L76.9649 79.2806L76.8149 79.7959H76.8135L72.0607 96.0486L71.9093 96.5639L68.4302 108.457H67.9746L71.4552 96.5639L71.6052 96.0486L76.3593 79.7972L76.5093 79.282L81.2635 63.0292H81.2649L81.3718 62.6611L81.4135 62.5139H81.8691Z" fill="#B3D3FF"/>
<path d="M96.6408 62.4987L96.5936 62.6612L96.4908 63.0139L91.7366 79.2653L91.5866 79.7806L86.8311 96.0334L86.6811 96.5487L83.1977 108.457H82.7422L86.2269 96.5487L86.3769 96.0334L91.1311 79.782L91.2825 79.2667L96.0352 63.0153L96.1394 62.6612L96.1866 62.4987H96.6408Z" fill="#B3D3FF"/>
<path d="M104.563 79.2528L104.411 79.7681L91.5864 79.7806L91.1308 79.782L76.8141 79.7959H76.8128L76.3586 79.7972L62.0405 79.8111L61.5864 79.8125L47.9961 79.8264L48.1475 79.3111L61.7378 79.2973L62.1919 79.2959L76.5086 79.282L76.9641 79.2806L91.2822 79.2667L91.7364 79.2653L104.563 79.2528Z" fill="#B3D3FF"/>
<path d="M99.6585 96.0195L99.5071 96.5348L86.6807 96.5487H86.2265L71.9085 96.564H71.4543L57.1362 96.5792H56.6821L43.0918 96.5931L43.2432 96.0779L56.8335 96.064L57.2876 96.0626L71.6043 96.0487H72.0599L86.3765 96.0334H86.8307L99.6585 96.0195Z" fill="#B3D3FF"/>
<path d="M96.0197 108.457H79.428H39.6211L41.7169 111.8H81.5239H98.1142L96.0197 108.457Z" fill="#2B2B57"/>
<path d="M98.1134 112.089H41.7162C41.6162 112.089 41.5245 112.038 41.4717 111.953L39.3759 108.611C39.3203 108.522 39.3176 108.41 39.3676 108.318C39.4176 108.227 39.5148 108.17 39.6203 108.17H96.0176C96.1176 108.17 96.2092 108.221 96.262 108.306L98.3578 111.649C98.4134 111.738 98.4162 111.85 98.3662 111.942C98.3162 112.032 98.219 112.089 98.1134 112.089ZM41.8759 111.511H97.5912L95.8578 108.746H40.1426L41.8759 111.511Z" fill="#B3D3FF"/>
<path d="M49.06 76.1959H64.9683L58.2697 99.0945H42.3614H26.4336L33.1322 76.1959H49.06ZM58.3975 82.5001C58.6794 82.5001 58.9419 82.2431 58.985 81.9265C59.028 81.6084 58.8364 81.3529 58.5544 81.3529H36.1891C35.9086 81.3529 35.6461 81.6098 35.603 81.9265C35.56 82.2431 35.753 82.5001 36.0322 82.5001H58.3975ZM57.178 86.6723C57.46 86.6723 57.7225 86.4154 57.7655 86.0987C57.8086 85.7806 57.6169 85.5251 57.335 85.5251H34.9697C34.6891 85.5251 34.4266 85.782 34.3836 86.0987C34.3405 86.4154 34.5336 86.6723 34.8128 86.6723H57.178ZM55.9572 90.8459C56.2392 90.8459 56.5016 90.589 56.5447 90.2723C56.5878 89.9557 56.3947 89.6987 56.1141 89.6987H41.3725C41.0905 89.6987 40.828 89.9557 40.785 90.2723C40.7419 90.5904 40.9336 90.8459 41.2155 90.8459H55.9572Z" fill="#555578"/>
<path d="M58.269 99.3834H26.4329C26.3426 99.3834 26.2565 99.3403 26.2023 99.2681C26.1482 99.1959 26.1301 99.1014 26.1565 99.0139L32.8551 76.1153C32.8912 75.9917 33.0037 75.907 33.1329 75.907H64.969C65.0593 75.907 65.1454 75.95 65.1996 76.0223C65.2537 76.0945 65.2718 76.1889 65.2454 76.2764L58.5468 99.175C58.5107 99.2986 58.3968 99.3834 58.269 99.3834ZM26.8176 98.8056H58.0523L64.5815 76.4848H33.3482L26.8176 98.8056ZM55.9565 91.1348H41.2148C41.0065 91.1348 40.8162 91.0486 40.6815 90.8931C40.5315 90.7209 40.4648 90.4806 40.4982 90.232C40.5607 89.7709 40.944 89.4098 41.3718 89.4098H56.1121C56.3204 89.4098 56.5107 89.4959 56.6468 89.6514C56.7968 89.8236 56.8635 90.0639 56.8301 90.3111C56.7662 90.7723 56.3829 91.1348 55.9565 91.1348ZM41.3718 89.9875C41.251 89.9875 41.0968 90.1209 41.0704 90.3111C41.0593 90.3945 41.076 90.4681 41.1162 90.5139C41.1412 90.5431 41.1746 90.557 41.2148 90.557H55.9565C56.0773 90.557 56.2315 90.4236 56.2579 90.232C56.269 90.15 56.2523 90.0764 56.2121 90.0306C56.1857 90.0014 56.1537 89.9875 56.1135 89.9875H41.3718ZM57.1773 86.9611H34.8121C34.6037 86.9611 34.4148 86.875 34.2787 86.7195C34.1287 86.5473 34.0621 86.307 34.0954 86.0598C34.1579 85.5973 34.5412 85.2361 34.9676 85.2361H57.3315C57.5398 85.2361 57.7301 85.3223 57.8648 85.4778C58.0148 85.65 58.0815 85.8903 58.0482 86.1389C57.9871 86.6 57.6037 86.9611 57.1773 86.9611ZM34.969 85.8139C34.8482 85.8139 34.6954 85.9473 34.669 86.1389C34.6579 86.2209 34.6746 86.2945 34.7148 86.3403C34.7398 86.3695 34.7718 86.3834 34.8121 86.3834H57.176C57.2968 86.3834 57.451 86.25 57.4773 86.0598C57.4885 85.9764 57.4718 85.9028 57.4315 85.857C57.4065 85.8278 57.3732 85.8139 57.3329 85.8139H34.969ZM58.3968 82.7889H36.0329C35.8246 82.7889 35.6357 82.7028 35.4996 82.5473C35.3496 82.375 35.2829 82.1348 35.3162 81.8875C35.3787 81.425 35.7621 81.0639 36.1885 81.0639H58.5523C58.7607 81.0639 58.951 81.15 59.0857 81.3056C59.2357 81.4778 59.3023 81.7181 59.269 81.9667C59.2079 82.4278 58.8246 82.7889 58.3968 82.7889ZM36.1885 81.6417C36.0676 81.6417 35.9148 81.775 35.8885 81.9667C35.8773 82.0486 35.894 82.1223 35.9343 82.1681C35.9593 82.1973 35.9912 82.2111 36.0315 82.2111H58.3954C58.5162 82.2111 58.6704 82.0778 58.6954 81.8875C58.7065 81.8042 58.6898 81.7306 58.6496 81.6848C58.6246 81.6556 58.5912 81.6417 58.551 81.6417H36.1885Z" fill="#B3D3FF"/>
<path d="M58.2678 99.0946H42.3594H26.4316L28.5261 102.438H44.4553H60.3636L58.2678 99.0946Z" fill="#2B2B57"/>
<path d="M60.3642 102.726H28.5267C28.4267 102.726 28.335 102.675 28.2823 102.59L26.1864 99.2473C26.1309 99.1584 26.1281 99.0459 26.1781 98.9543C26.2295 98.8626 26.3253 98.8057 26.4309 98.8057H58.267C58.367 98.8057 58.4587 98.8571 58.5114 98.9418L60.6073 102.285C60.6628 102.374 60.6656 102.486 60.6156 102.578C60.5656 102.67 60.4698 102.726 60.3642 102.726ZM28.6864 102.149H59.842L58.1087 99.3834H26.9531L28.6864 102.149Z" fill="#B3D3FF"/>
<path d="M64.9681 76.1959L67.064 79.539L60.3654 102.438L58.2695 99.0945L64.9681 76.1959Z" fill="#555578"/>
<path d="M60.3648 102.726C60.2662 102.726 60.1731 102.676 60.1203 102.59L58.0245 99.2473C57.9801 99.1779 57.969 99.0918 57.9926 99.0126L64.6912 76.114C64.7231 76.0043 64.8162 75.9251 64.9287 75.9084C65.0412 75.8931 65.1523 75.9445 65.2134 76.0418L67.3092 79.3848C67.3537 79.4543 67.3648 79.5404 67.3412 79.6195L60.6426 102.518C60.6106 102.628 60.5176 102.707 60.4051 102.724C60.3912 102.726 60.3773 102.726 60.3648 102.726ZM58.5828 99.0515L60.2676 101.74L66.7495 79.5834L65.0648 76.8945L58.5828 99.0515Z" fill="#B3D3FF"/>
<path d="M101.485 89.7321L79.4297 108.457L84.9075 89.7321H101.485Z" fill="#555578"/>
<path d="M79.4288 108.746C79.3747 108.746 79.3191 108.731 79.2719 108.699C79.1649 108.629 79.1163 108.497 79.1524 108.375L84.6302 89.6501C84.6663 89.5265 84.7788 89.4418 84.908 89.4418H101.486C101.607 89.4418 101.715 89.5168 101.757 89.6307C101.798 89.7446 101.765 89.8723 101.672 89.9501L79.6163 108.675C79.5622 108.724 79.4955 108.746 79.4288 108.746ZM85.1233 90.0209L79.976 107.613L100.697 90.0209H85.1233Z" fill="#B3D3FF"/>
<path d="M115.344 43.146C116.747 43.146 117.71 44.4307 117.494 46.0154L115.617 59.7946C115.401 61.3779 114.087 62.6627 112.685 62.6627H111.872H109.415H53.0166H48.4041C47 62.6627 46.0375 61.3779 46.2528 59.7946L48.1305 46.0154C48.3472 44.4307 49.6597 43.146 51.0639 43.146H60.2278L59.0166 52.0349C58.9083 52.8279 59.3889 53.4682 60.0916 53.4682H62.4486C63.15 53.4682 63.8069 52.8266 63.9139 52.0349L65.125 43.146H101.283L100.072 52.0349C99.9639 52.8279 100.446 53.4682 101.147 53.4682H103.504C104.206 53.4682 104.862 52.8266 104.971 52.0349L106.182 43.146H115.344Z" fill="#000035"/>
<path d="M112.684 62.9501H48.4035C47.7007 62.9501 47.0632 62.6626 46.6063 62.139C46.0757 61.5307 45.8424 60.6626 45.966 59.7543L47.8438 45.9751C48.0785 44.2557 49.5216 42.8571 51.0632 42.8571H60.2271C60.3105 42.8571 60.3896 42.8932 60.4452 42.9557C60.5007 43.0182 60.5257 43.1015 60.5132 43.1848L59.3021 52.0737C59.2577 52.4043 59.3355 52.7126 59.5188 52.9223C59.666 53.0904 59.8632 53.1793 60.091 53.1793H62.448C63.0091 53.1793 63.5382 52.6487 63.6271 51.9959L64.8382 43.1071C64.8577 42.964 64.9799 42.8571 65.1243 42.8571H101.283C101.366 42.8571 101.445 42.8932 101.501 42.9557C101.555 43.0182 101.58 43.1015 101.569 43.1848L100.358 52.0737C100.313 52.4029 100.392 52.7126 100.574 52.9223C100.722 53.0904 100.919 53.1793 101.147 53.1793H103.504C104.056 53.1793 104.597 52.6376 104.684 51.9959L105.895 43.1071C105.915 42.964 106.037 42.8571 106.181 42.8571H115.345C116.047 42.8571 116.684 43.1446 117.141 43.6682C117.672 44.2765 117.905 45.1459 117.781 46.0543L115.904 59.8334C115.667 61.5515 114.224 62.9501 112.684 62.9501ZM51.0632 43.4348C49.8007 43.4348 48.6132 44.6098 48.416 46.0543L46.5382 59.8334C46.4368 60.5751 46.6202 61.2779 47.041 61.7598C47.3868 62.1557 47.8702 62.3737 48.4035 62.3737H112.684C113.947 62.3737 115.133 61.2001 115.33 59.7557L117.208 45.9765C117.309 45.2334 117.126 44.5307 116.705 44.0487C116.36 43.6529 115.877 43.4362 115.344 43.4362H106.433L105.255 52.0751C105.126 53.0196 104.356 53.7584 103.502 53.7584H101.145C100.752 53.7584 100.394 53.5973 100.138 53.3029C99.8452 52.9682 99.716 52.4918 99.7841 51.9959L100.951 43.4348H65.3771L64.1993 52.0737C64.0702 53.0182 63.3007 53.7571 62.448 53.7571H60.091C59.698 53.7571 59.3396 53.5959 59.0841 53.3029C58.791 52.9682 58.6618 52.4918 58.7299 51.9959L59.8966 43.4348H51.0632Z" fill="#B3D3FF"/>
<path d="M56.1112 89.6987C56.3931 89.6987 56.5848 89.9557 56.5417 90.2723C56.4987 90.5904 56.2362 90.846 55.9542 90.846H41.2139C40.932 90.846 40.7403 90.589 40.7834 90.2723C40.8264 89.9557 41.0889 89.6987 41.3709 89.6987H56.1112Z" fill="#000035"/>
<path d="M55.955 91.1348H41.2134C41.005 91.1348 40.8147 91.0487 40.68 90.8931C40.53 90.7209 40.4634 90.4806 40.4967 90.232C40.5592 89.7709 40.9425 89.4098 41.3703 89.4098H56.1106C56.3189 89.4098 56.5092 89.4959 56.6453 89.6515C56.7953 89.8237 56.862 90.064 56.8286 90.3112C56.7647 90.7723 56.3814 91.1348 55.955 91.1348ZM41.3703 89.9876C41.2495 89.9876 41.0953 90.1209 41.0689 90.3112C41.0578 90.3945 41.0745 90.4681 41.1148 90.514C41.1398 90.5431 41.1731 90.557 41.2134 90.557H55.955C56.0759 90.557 56.23 90.4237 56.2564 90.232C56.2675 90.1501 56.2509 90.0765 56.2106 90.0306C56.1856 90.0015 56.1522 89.9876 56.112 89.9876H41.3703Z" fill="#000035"/>
<path d="M58.5517 81.3529C58.8337 81.3529 59.0254 81.6099 58.9823 81.9265C58.9392 82.2432 58.6767 82.5001 58.3948 82.5001H36.0309C35.7504 82.5001 35.5587 82.2432 35.6017 81.9265C35.6448 81.6085 35.9073 81.3529 36.1879 81.3529H58.5517Z" fill="#000035"/>
<path d="M58.3956 82.789H36.0317C35.8234 82.789 35.6345 82.7029 35.4984 82.5473C35.3484 82.3751 35.2817 82.1348 35.3151 81.8876C35.3776 81.4251 35.7609 81.064 36.1873 81.064H58.5512C58.7595 81.064 58.9498 81.1501 59.0845 81.3056C59.2345 81.4779 59.3012 81.7181 59.2678 81.9667C59.2067 82.4279 58.822 82.789 58.3956 82.789ZM36.1873 81.6417C36.0664 81.6417 35.9137 81.7751 35.8873 81.9667C35.8762 82.0487 35.8928 82.1223 35.9331 82.1681C35.9581 82.1973 35.9901 82.2112 36.0303 82.2112H58.3942C58.5151 82.2112 58.6692 82.0779 58.6956 81.8876C58.7067 81.8043 58.6901 81.7306 58.6498 81.6848C58.6248 81.6556 58.5914 81.6417 58.5512 81.6417H36.1873Z" fill="#000035"/>
<path d="M57.331 85.5251C57.613 85.5251 57.8047 85.7821 57.7616 86.0987C57.7185 86.4154 57.456 86.6724 57.1741 86.6724H34.8102C34.5297 86.6724 34.338 86.4154 34.381 86.0987C34.4241 85.7807 34.6866 85.5251 34.9672 85.5251H57.331Z" fill="#000035"/>
<path d="M57.1763 86.9612H34.811C34.6027 86.9612 34.4138 86.8751 34.2777 86.7195C34.1277 86.5473 34.061 86.307 34.0943 86.0598C34.1568 85.5973 34.5402 85.2362 34.9666 85.2362H57.3305C57.5388 85.2362 57.7291 85.3223 57.8638 85.4779C58.0138 85.6501 58.0805 85.8904 58.0471 86.139C57.986 86.6001 57.6027 86.9612 57.1763 86.9612ZM34.968 85.814C34.8471 85.814 34.6944 85.9473 34.668 86.139C34.6569 86.2209 34.6735 86.2945 34.7138 86.3404C34.7388 86.3695 34.7707 86.3834 34.811 86.3834H57.1749C57.2957 86.3834 57.4499 86.2501 57.4749 86.0598C57.486 85.9765 57.4693 85.9029 57.4291 85.857C57.4041 85.8279 57.3707 85.814 57.3305 85.814H34.968Z" fill="#000035"/>
<path d="M119.614 77.0667C120.755 77.0667 121.68 76.1414 121.68 75C121.68 73.8586 120.755 72.9333 119.614 72.9333C118.472 72.9333 117.547 73.8586 117.547 75C117.547 76.1414 118.472 77.0667 119.614 77.0667Z" fill="#B3D3FF"/>
<path d="M23.1897 96.0042C24.3311 96.0042 25.2564 95.0789 25.2564 93.9375C25.2564 92.7961 24.3311 91.8708 23.1897 91.8708C22.0483 91.8708 21.123 92.7961 21.123 93.9375C21.123 95.0789 22.0483 96.0042 23.1897 96.0042Z" fill="#B3D3FF"/>
<path d="M24.2239 97.675C24.6258 97.675 24.9516 97.3492 24.9516 96.9473C24.9516 96.5453 24.6258 96.2195 24.2239 96.2195C23.8219 96.2195 23.4961 96.5453 23.4961 96.9473C23.4961 97.3492 23.8219 97.675 24.2239 97.675Z" fill="#B3D3FF"/>
<path d="M120.36 41.5153C121.501 41.5153 122.426 40.59 122.426 39.4486C122.426 38.3072 121.501 37.382 120.36 37.382C119.218 37.382 118.293 38.3072 118.293 39.4486C118.293 40.59 119.218 41.5153 120.36 41.5153Z" fill="#B3D3FF"/>
<path d="M117.212 39.7056C117.614 39.7056 117.94 39.3797 117.94 38.9778C117.94 38.5758 117.614 38.25 117.212 38.25C116.81 38.25 116.484 38.5758 116.484 38.9778C116.484 39.3797 116.81 39.7056 117.212 39.7056Z" fill="#B3D3FF"/>
<path d="M40.9481 71.357C42.9118 71.357 44.5037 69.7651 44.5037 67.8014C44.5037 65.8377 42.9118 64.2458 40.9481 64.2458C38.9845 64.2458 37.3926 65.8377 37.3926 67.8014C37.3926 69.7651 38.9845 71.357 40.9481 71.357Z" fill="#80809A"/>
<path d="M37.3923 66.0472C38.3273 66.0472 39.0853 65.2892 39.0853 64.3542C39.0853 63.4191 38.3273 62.6611 37.3923 62.6611C36.4572 62.6611 35.6992 63.4191 35.6992 64.3542C35.6992 65.2892 36.4572 66.0472 37.3923 66.0472Z" fill="#B3D3FF"/>
</svg>
