<svg width="108" height="120" viewBox="0 0 108 120" fill="none" xmlns="http://www.w3.org/2000/svg">
<path d="M98.0803 0.883789H9.30812C8.11555 0.891683 6.93627 1.13486 5.83787 1.59938C4.73946 2.06389 3.74353 2.74063 2.90716 3.59078C2.07079 4.44092 1.41042 5.44778 0.963912 6.55362C0.5174 7.65947 0.293525 8.84257 0.305116 10.0351V192.82C0.284623 195.223 1.219 197.536 2.90298 199.251C4.58696 200.966 6.8828 201.942 9.28615 201.966H98.0803C100.485 201.944 102.783 200.968 104.469 199.253C106.155 197.539 107.091 195.225 107.072 192.82V10.0351C107.093 7.62933 106.157 5.3139 104.471 3.59783C102.785 1.88177 100.486 0.905547 98.0803 0.883789ZM101.453 187.167C101.453 191.979 97.8495 195.868 93.4057 195.868H13.9936C9.53882 195.868 5.93543 191.979 5.93543 187.167V16.9618C5.93543 7.16227 9.53882 6.68438 13.9936 6.68438H29.9233C30.8461 6.68438 31.6041 7.73354 31.6041 9.03538V9.58468C31.6041 12.6388 33.252 12.6498 35.3229 12.6498H72.1259C74.1968 12.6498 75.8556 12.6498 75.8556 9.58468V9.05735C75.8556 7.75551 76.6027 6.70635 77.542 6.70635H93.4716C97.9155 6.70635 101.519 8.00819 101.519 16.9837L101.453 187.167Z" fill="#263238"/>
<path d="M101.477 16.9619V187.168C101.477 191.979 97.8736 195.868 93.4298 195.868H13.9957C9.5409 195.868 5.9375 191.979 5.9375 187.168V16.9619C5.9375 7.16246 9.5409 6.68457 13.9957 6.68457H29.9254C30.8482 6.68457 31.6062 7.73373 31.6062 9.03557V9.58487C31.6062 12.639 33.2541 12.65 35.325 12.65H72.128C74.1988 12.65 75.8577 12.65 75.8577 9.58487V9.05754C75.8577 7.7557 76.6048 6.70654 77.5441 6.70654H93.4737C97.8736 6.68457 101.477 7.98641 101.477 16.9619Z" fill="white"/>
<path d="M101.477 16.9619V36.1325H5.9375V16.9619C5.9375 7.16246 9.5409 6.68457 13.9957 6.68457H29.9254C30.8482 6.68457 31.6062 7.73373 31.6062 9.03557V9.58487C31.6062 12.639 33.2541 12.65 35.325 12.65H72.128C74.1988 12.65 75.8577 12.65 75.8577 9.58487V9.05754C75.8577 7.7557 76.6048 6.70654 77.544 6.70654H93.4737C97.8736 6.68457 101.477 7.98641 101.477 16.9619Z" fill="#00510C"/>
<path d="M27.1652 10.5091C27.1112 10.5576 27.0599 10.609 27.0114 10.6629L26.9235 10.7453C26.7288 10.5507 26.4976 10.3966 26.243 10.2919C25.9884 10.1873 25.7156 10.1341 25.4404 10.1356C25.1646 10.1336 24.8912 10.1871 24.6364 10.2928C24.3816 10.3984 24.1507 10.5542 23.9573 10.7508L23.8749 10.6629L23.7266 10.5091L23.9188 10.3388C24.0565 10.2253 24.2078 10.1294 24.3692 10.0532C24.5568 9.95865 24.7564 9.89027 24.9625 9.84997L25.2646 9.81152H25.5228H25.726C25.9136 9.83389 26.098 9.87814 26.2753 9.94335C26.4015 9.99223 26.5244 10.0491 26.6433 10.1136C26.7669 10.1865 26.8845 10.2692 26.9949 10.3608L27.1597 10.5091H27.1652Z" fill="white"/>
<path d="M24.4448 11.2537L24.2031 11.0175C24.4683 10.746 24.816 10.5702 25.1919 10.5177C25.4605 10.4779 25.7348 10.5019 25.9924 10.5878C26.2501 10.6737 26.4839 10.819 26.675 11.012L26.4333 11.2537C26.1696 10.9901 25.8119 10.842 25.439 10.842C25.0662 10.842 24.7085 10.9901 24.4448 11.2537Z" fill="white"/>
<path d="M26.1926 11.4755L25.9509 11.7172C25.8844 11.6491 25.8049 11.595 25.7172 11.5581C25.6295 11.5211 25.5352 11.5021 25.44 11.5021C25.3448 11.5021 25.2506 11.5211 25.1629 11.5581C25.0752 11.595 24.9957 11.6491 24.9292 11.7172C24.8523 11.6348 24.7699 11.5524 24.6875 11.4755C24.786 11.3762 24.9033 11.2974 25.0324 11.2436C25.1616 11.1898 25.3001 11.1621 25.44 11.1621C25.5799 11.1621 25.7185 11.1898 25.8476 11.2436C25.9768 11.2974 26.094 11.3762 26.1926 11.4755Z" fill="white"/>
<path d="M25.6582 11.9375C25.6582 11.981 25.6453 12.0234 25.6212 12.0596C25.597 12.0957 25.5627 12.1239 25.5226 12.1405C25.4824 12.1571 25.4382 12.1615 25.3956 12.153C25.353 12.1445 25.3138 12.1236 25.2831 12.0929C25.2524 12.0621 25.2314 12.023 25.223 11.9804C25.2145 11.9377 25.2188 11.8936 25.2355 11.8534C25.2521 11.8133 25.2803 11.7789 25.3164 11.7548C25.3525 11.7307 25.395 11.7178 25.4385 11.7178C25.4673 11.7178 25.4959 11.7235 25.5226 11.7345C25.5492 11.7455 25.5734 11.7617 25.5938 11.7821C25.6142 11.8025 25.6304 11.8268 25.6415 11.8534C25.6525 11.8801 25.6582 11.9086 25.6582 11.9375Z" fill="white"/>
<path d="M12.1641 10.9692C12.1641 10.8432 12.2014 10.72 12.2714 10.6152C12.3415 10.5104 12.441 10.4288 12.5574 10.3805C12.6738 10.3323 12.802 10.3197 12.9256 10.3443C13.0492 10.3689 13.1627 10.4295 13.2518 10.5187C13.3409 10.6078 13.4016 10.7213 13.4262 10.8449C13.4508 10.9685 13.4382 11.0966 13.3899 11.2131C13.3417 11.3295 13.26 11.429 13.1553 11.499C13.0505 11.569 12.9273 11.6064 12.8013 11.6064C12.6323 11.6064 12.4702 11.5393 12.3507 11.4198C12.2312 11.3003 12.1641 11.1382 12.1641 10.9692Z" fill="white"/>
<path d="M14.1641 10.97C14.1652 10.8453 14.2031 10.7237 14.2732 10.6205C14.3433 10.5174 14.4423 10.4372 14.5578 10.3903C14.6733 10.3433 14.8002 10.3316 14.9223 10.3566C15.0445 10.3816 15.1566 10.4421 15.2444 10.5307C15.3322 10.6193 15.3918 10.7318 15.4157 10.8542C15.4396 10.9766 15.4268 11.1033 15.3788 11.2184C15.3309 11.3335 15.2499 11.4319 15.1461 11.501C15.0424 11.5702 14.9205 11.6071 14.7958 11.6071C14.7124 11.6071 14.6298 11.5906 14.5528 11.5585C14.4758 11.5264 14.4059 11.4794 14.3471 11.4202C14.2884 11.3609 14.242 11.2907 14.2106 11.2134C14.1792 11.1361 14.1634 11.0534 14.1641 10.97Z" fill="white"/>
<path d="M16.1563 10.9699C16.1574 10.845 16.1955 10.7232 16.2658 10.6199C16.3361 10.5167 16.4355 10.4366 16.5513 10.3898C16.6671 10.3429 16.7942 10.3315 16.9166 10.357C17.0389 10.3824 17.1509 10.4436 17.2385 10.5327C17.3261 10.6218 17.3852 10.7349 17.4085 10.8576C17.4319 10.9803 17.4182 11.1072 17.3694 11.2222C17.3206 11.3372 17.2388 11.4352 17.1343 11.5037C17.0298 11.5722 16.9074 11.6082 16.7825 11.6071C16.6995 11.6064 16.6175 11.5893 16.5412 11.5569C16.4648 11.5245 16.3955 11.4774 16.3374 11.4182C16.2793 11.359 16.2333 11.289 16.2023 11.2121C16.1712 11.1352 16.1555 11.0529 16.1563 10.9699Z" fill="white"/>
<path d="M18.1485 10.97C18.1495 10.8453 18.1875 10.7237 18.2576 10.6205C18.3276 10.5174 18.4267 10.4372 18.5422 10.3903C18.6577 10.3433 18.7846 10.3316 18.9067 10.3566C19.0289 10.3816 19.1409 10.4421 19.2287 10.5307C19.3165 10.6193 19.3761 10.7318 19.4001 10.8542C19.424 10.9766 19.4112 11.1033 19.3632 11.2184C19.3153 11.3335 19.2343 11.4319 19.1305 11.501C19.0268 11.5702 18.9049 11.6071 18.7802 11.6071C18.6967 11.6071 18.6141 11.5906 18.5371 11.5585C18.4601 11.5264 18.3903 11.4794 18.3315 11.4202C18.2728 11.3609 18.2264 11.2907 18.195 11.2134C18.1635 11.1361 18.1477 11.0534 18.1485 10.97Z" fill="white"/>
<path d="M20.1485 10.97C20.1495 10.8453 20.1875 10.7237 20.2576 10.6205C20.3276 10.5174 20.4267 10.4372 20.5422 10.3903C20.6577 10.3433 20.7845 10.3316 20.9067 10.3566C21.0289 10.3816 21.1409 10.4421 21.2287 10.5307C21.3165 10.6193 21.3761 10.7318 21.4001 10.8542C21.424 10.9766 21.4112 11.1033 21.3632 11.2184C21.3153 11.3335 21.2343 11.4319 21.1305 11.501C21.0268 11.5702 20.9049 11.6071 20.7802 11.6071C20.6967 11.6071 20.6141 11.5906 20.5371 11.5585C20.4601 11.5264 20.3903 11.4794 20.3315 11.4202C20.2728 11.3609 20.2264 11.2907 20.195 11.2134C20.1635 11.1361 20.1477 11.0534 20.1485 10.97Z" fill="white"/>
<path d="M94.3087 12.3514H89.1562V9.96191H94.3087V12.3514ZM89.4199 12.0877H94.0505V10.2256H89.4199V12.0877Z" fill="white"/>
<path d="M92.9092 10.3711H89.5859V11.9476H92.9092V10.3711Z" fill="white"/>
<path d="M94.7684 10.5176H94.3125V11.7974H94.7684V10.5176Z" fill="white"/>
<path d="M14.6515 30.7497L11.8281 28.1021L14.6515 25.46L15.0855 25.9269L12.7619 28.1021L15.0855 30.2828L14.6515 30.7497Z" fill="white"/>
<path d="M92.7754 25.46L95.5988 28.1021L92.7754 30.7497L92.3359 30.2828L94.6595 28.1021L92.3359 25.9269L92.7754 25.46Z" fill="white"/>
<path d="M40.8672 28.1028C40.8762 27.8062 40.967 27.5179 41.1295 27.2696C41.2921 27.0214 41.5201 26.823 41.7884 26.6962C42.0566 26.5695 42.3547 26.5194 42.6497 26.5514C42.9447 26.5835 43.2251 26.6964 43.4599 26.8778C43.5092 26.9196 43.541 26.9782 43.5491 27.0423C43.5573 27.1064 43.5411 27.1712 43.5038 27.2239C43.4636 27.2751 43.4052 27.3089 43.3407 27.3181C43.2762 27.3273 43.2107 27.3113 43.1578 27.2733C42.9593 27.1167 42.7129 27.0332 42.4602 27.0371C42.1682 27.0388 41.8877 27.1507 41.6747 27.3502C41.5752 27.4492 41.4962 27.5669 41.4424 27.6966C41.3885 27.8262 41.3608 27.9651 41.3608 28.1055C41.3608 28.2459 41.3885 28.3849 41.4424 28.5145C41.4962 28.6441 41.5752 28.7618 41.6747 28.8608C41.8892 29.0581 42.1688 29.1695 42.4602 29.1739C42.7136 29.1762 42.9601 29.0908 43.1578 28.9322C43.2115 28.8968 43.2764 28.8822 43.3402 28.8913C43.4039 28.9004 43.4621 28.9326 43.5038 28.9816C43.5411 29.0344 43.5573 29.0991 43.5491 29.1632C43.541 29.2273 43.5092 29.286 43.4599 29.3277C43.1746 29.5508 42.8223 29.6709 42.4602 29.6683C42.042 29.6697 41.6401 29.5062 41.3418 29.213C41.0435 28.9199 40.873 28.5209 40.8672 28.1028Z" fill="white"/>
<path d="M44.3516 29.4275V26.8677C44.3509 26.8363 44.3565 26.8049 44.368 26.7757C44.3796 26.7464 44.3968 26.7197 44.4188 26.6972C44.4408 26.6746 44.4671 26.6567 44.4962 26.6445C44.5252 26.6323 44.5563 26.626 44.5878 26.626C44.62 26.6253 44.652 26.631 44.682 26.6428C44.712 26.6547 44.7393 26.6723 44.7623 26.6949C44.7853 26.7174 44.8036 26.7443 44.8161 26.774C44.8286 26.8036 44.835 26.8355 44.835 26.8677V27.9114H45.9336V26.8677C45.9329 26.8358 45.9386 26.804 45.9505 26.7744C45.9624 26.7447 45.9801 26.7178 46.0027 26.6952C46.0253 26.6726 46.0523 26.6548 46.0819 26.6429C46.1116 26.631 46.1434 26.6253 46.1753 26.626C46.2394 26.626 46.3009 26.6515 46.3462 26.6968C46.3915 26.7422 46.417 26.8036 46.417 26.8677V29.4275C46.417 29.4916 46.3915 29.553 46.3462 29.5984C46.3009 29.6437 46.2394 29.6692 46.1753 29.6692C46.1434 29.6699 46.1116 29.6642 46.0819 29.6523C46.0523 29.6404 46.0253 29.6226 46.0027 29.6C45.9801 29.5774 45.9624 29.5505 45.9505 29.5208C45.9386 29.4912 45.9329 29.4594 45.9336 29.4275V28.3838H44.835V29.4275C44.835 29.4597 44.8286 29.4916 44.8161 29.5212C44.8036 29.5509 44.7853 29.5778 44.7623 29.6003C44.7393 29.6229 44.712 29.6405 44.682 29.6524C44.652 29.6642 44.62 29.6699 44.5878 29.6692C44.5563 29.6692 44.5252 29.6629 44.4962 29.6507C44.4671 29.6385 44.4408 29.6206 44.4188 29.598C44.3968 29.5755 44.3796 29.5488 44.368 29.5195C44.3565 29.4902 44.3509 29.4589 44.3516 29.4275Z" fill="white"/>
<path d="M47.43 29.4275V26.8677C47.4284 26.8361 47.4335 26.8044 47.4447 26.7748C47.456 26.7451 47.4732 26.7181 47.4954 26.6954C47.5176 26.6728 47.5442 26.6549 47.5735 26.6429C47.6029 26.631 47.6345 26.6253 47.6662 26.626H49.0833C49.1474 26.626 49.2089 26.6515 49.2542 26.6968C49.2996 26.7422 49.325 26.8036 49.325 26.8677C49.3236 26.9314 49.2977 26.9921 49.2527 27.0371C49.2077 27.0821 49.147 27.108 49.0833 27.1094H47.9078V27.9059H48.9186C48.9817 27.9059 49.0424 27.9306 49.0875 27.9747C49.1327 28.0189 49.1588 28.079 49.1602 28.1421C49.1602 28.2062 49.1348 28.2677 49.0895 28.313C49.0441 28.3583 48.9827 28.3838 48.9186 28.3838H47.9078V29.1858H49.0833C49.1474 29.1858 49.2089 29.2112 49.2542 29.2566C49.2996 29.3019 49.325 29.3634 49.325 29.4275C49.325 29.4916 49.2996 29.553 49.2542 29.5984C49.2089 29.6437 49.1474 29.6692 49.0833 29.6692H47.6662C47.6347 29.6692 47.6035 29.6629 47.5745 29.6507C47.5455 29.6385 47.5192 29.6206 47.4972 29.598C47.4752 29.5755 47.4579 29.5488 47.4463 29.5195C47.4348 29.4903 47.4292 29.4589 47.43 29.4275Z" fill="white"/>
<path d="M49.8672 28.1021C49.8758 27.6854 50.0474 27.2886 50.3453 26.997C50.6431 26.7053 51.0433 26.542 51.4602 26.5421C51.8234 26.5376 52.1775 26.6556 52.4654 26.8772C52.5084 26.9208 52.5342 26.9786 52.5378 27.0398C52.5414 27.101 52.5226 27.1614 52.485 27.2098C52.4474 27.2582 52.3934 27.2913 52.3332 27.3028C52.273 27.3144 52.2106 27.3037 52.1578 27.2727C51.9593 27.116 51.7129 27.0326 51.4602 27.0365C51.1698 27.038 50.8909 27.1499 50.6802 27.3496C50.5793 27.4478 50.4992 27.5653 50.4445 27.695C50.3898 27.8247 50.3616 27.9641 50.3616 28.1049C50.3616 28.2457 50.3898 28.385 50.4445 28.5147C50.4992 28.6444 50.5793 28.7619 50.6802 28.8602C50.8924 29.0575 51.1704 29.1691 51.4602 29.1733C51.7141 29.1784 51.9615 29.0927 52.1578 28.9316C52.2124 28.8957 52.2782 28.881 52.3428 28.8901C52.4075 28.8992 52.4667 28.9315 52.5093 28.981C52.5466 29.0337 52.5628 29.0985 52.5546 29.1626C52.5465 29.2266 52.5147 29.2853 52.4654 29.3271C52.177 29.5483 51.8236 29.6681 51.4602 29.6676C51.0424 29.6677 50.6413 29.5036 50.3434 29.2108C50.0454 28.918 49.8744 28.5198 49.8672 28.1021Z" fill="white"/>
<path d="M53.3543 29.4261V26.8884C53.3491 26.854 53.3513 26.8188 53.3609 26.7854C53.3705 26.7519 53.3873 26.7209 53.41 26.6945C53.4326 26.6681 53.4608 26.6469 53.4924 26.6324C53.524 26.6179 53.5584 26.6104 53.5933 26.6104C53.6281 26.6104 53.6625 26.6179 53.6941 26.6324C53.7257 26.6469 53.7539 26.6681 53.7766 26.6945C53.7992 26.7209 53.816 26.7519 53.8256 26.7854C53.8352 26.8188 53.8374 26.854 53.8322 26.8884V28.1353L55.2384 26.7236C55.26 26.6999 55.2863 26.6811 55.3156 26.6681C55.345 26.6552 55.3766 26.6485 55.4087 26.6485C55.4407 26.6485 55.4724 26.6552 55.5017 26.6681C55.531 26.6811 55.5573 26.6999 55.579 26.7236C55.621 26.7692 55.6444 26.829 55.6444 26.8911C55.6444 26.9532 55.621 27.013 55.579 27.0587L54.6232 28.0089L55.5845 29.2778C55.612 29.3133 55.6292 29.3557 55.634 29.4003C55.6388 29.445 55.631 29.4901 55.6116 29.5306C55.5922 29.5711 55.562 29.6053 55.5242 29.6296C55.4864 29.6538 55.4426 29.6671 55.3977 29.6678C55.3639 29.666 55.3309 29.6572 55.3007 29.6421C55.2705 29.627 55.2437 29.6058 55.2219 29.5799L54.2826 28.3495L53.8322 28.8109V29.4261C53.8374 29.4606 53.8352 29.4957 53.8256 29.5291C53.816 29.5626 53.7992 29.5936 53.7766 29.62C53.7539 29.6464 53.7257 29.6676 53.6941 29.6821C53.6625 29.6966 53.6281 29.7042 53.5933 29.7042C53.5584 29.7042 53.524 29.6966 53.4924 29.6821C53.4608 29.6676 53.4326 29.6464 53.41 29.62C53.3873 29.5936 53.3705 29.5626 53.3609 29.5291C53.3513 29.4957 53.3491 29.4606 53.3543 29.4261Z" fill="white"/>
<path d="M58.6351 27.0034C58.9172 27.2996 59.0746 27.693 59.0746 28.102C59.0746 28.511 58.9172 28.9044 58.6351 29.2006C58.5036 29.3457 58.3434 29.4621 58.1648 29.5424C57.9861 29.6227 57.7928 29.6653 57.597 29.6675C57.3979 29.6654 57.2013 29.623 57.019 29.5427C56.8368 29.4625 56.6728 29.3461 56.5368 29.2006C56.2666 28.8985 56.1172 28.5073 56.1172 28.102C56.1172 27.6967 56.2666 27.3055 56.5368 27.0034C56.6724 26.8579 56.8365 26.7418 57.0189 26.6625C57.2013 26.5831 57.3981 26.5421 57.597 26.542C57.7926 26.5421 57.9861 26.5832 58.1649 26.6627C58.3437 26.7422 58.5039 26.8582 58.6351 27.0034ZM58.5802 28.102C58.582 27.8207 58.4759 27.5493 58.2836 27.344C58.1972 27.2473 58.0914 27.17 57.973 27.117C57.8547 27.064 57.7266 27.0365 57.597 27.0364C57.4648 27.0359 57.334 27.0631 57.213 27.116C57.0919 27.169 56.9832 27.2466 56.8939 27.344C56.7063 27.5519 56.6024 27.822 56.6024 28.102C56.6024 28.382 56.7063 28.6521 56.8939 28.86C56.9836 28.9573 57.0922 29.0353 57.2131 29.0891C57.334 29.143 57.4646 29.1715 57.597 29.1731C57.7268 29.1709 57.8548 29.142 57.9729 29.0881C58.091 29.0342 58.1968 28.9566 58.2836 28.86C58.4759 28.6547 58.582 28.3833 58.5802 28.102Z" fill="white"/>
<path d="M61.0002 29.6654C60.6665 29.6654 60.3466 29.5329 60.1107 29.297C59.8748 29.0611 59.7423 28.7411 59.7423 28.4075V26.864C59.7415 26.832 59.7472 26.8003 59.7591 26.7706C59.771 26.7409 59.7888 26.714 59.8114 26.6914C59.834 26.6688 59.8609 26.651 59.8906 26.6391C59.9202 26.6273 59.952 26.6215 59.9839 26.6223C60.048 26.6223 60.1095 26.6477 60.1548 26.6931C60.2002 26.7384 60.2256 26.7999 60.2256 26.864V28.4075C60.2256 28.6129 60.3072 28.8099 60.4525 28.9552C60.5977 29.1004 60.7947 29.182 61.0002 29.182C61.2056 29.182 61.4026 29.1004 61.5478 28.9552C61.6931 28.8099 61.7747 28.6129 61.7747 28.4075V26.864C61.7694 26.8295 61.7717 26.7944 61.7813 26.7609C61.7909 26.7275 61.8076 26.6965 61.8303 26.6701C61.853 26.6437 61.8811 26.6225 61.9128 26.608C61.9444 26.5935 61.9788 26.5859 62.0136 26.5859C62.0484 26.5859 62.0828 26.5935 62.1144 26.608C62.1461 26.6225 62.1742 26.6437 62.1969 26.6701C62.2196 26.6965 62.2363 26.7275 62.2459 26.7609C62.2555 26.7944 62.2578 26.8295 62.2526 26.864V28.4075C62.2526 28.7402 62.1208 29.0593 61.8861 29.295C61.6514 29.5308 61.3328 29.6639 61.0002 29.6654Z" fill="white"/>
<path d="M64.9991 27.1094H64.307V29.4274C64.3078 29.4589 64.3022 29.4902 64.2906 29.5195C64.2791 29.5488 64.2618 29.5755 64.2398 29.598C64.2178 29.6205 64.1915 29.6384 64.1625 29.6506C64.1335 29.6628 64.1023 29.6691 64.0708 29.6691C64.0067 29.6691 63.9452 29.6436 63.8999 29.5983C63.8546 29.553 63.8291 29.4915 63.8291 29.4274V27.1094H63.1425C63.0794 27.1079 63.0193 27.0818 62.9752 27.0367C62.931 26.9915 62.9063 26.9308 62.9063 26.8677C62.9056 26.8362 62.9111 26.8049 62.9227 26.7756C62.9342 26.7463 62.9515 26.7196 62.9735 26.6971C62.9955 26.6746 63.0218 26.6567 63.0508 26.6445C63.0799 26.6323 63.111 26.626 63.1425 26.626H64.9991C65.0306 26.626 65.0618 26.6323 65.0908 26.6445C65.1198 26.6567 65.1461 26.6746 65.1681 26.6971C65.1901 26.7196 65.2074 26.7463 65.219 26.7756C65.2305 26.8049 65.2361 26.8362 65.2353 26.8677C65.2354 26.9308 65.2106 26.9915 65.1665 27.0367C65.1224 27.0818 65.0623 27.1079 64.9991 27.1094Z" fill="white"/>
<path d="M58.7282 8.84884H48.687C48.5272 8.84176 48.3763 8.77325 48.2657 8.6576C48.1552 8.54196 48.0936 8.3881 48.0938 8.22813C48.0952 8.06395 48.161 7.9069 48.2771 7.79081C48.3932 7.67471 48.5503 7.60886 48.7145 7.60742H58.7556C58.9193 7.60887 59.0758 7.6749 59.191 7.79115C59.3062 7.9074 59.3709 8.06445 59.3708 8.22813C59.3717 8.31174 59.3555 8.39465 59.3232 8.47179C59.2909 8.54892 59.2432 8.61867 59.1831 8.67676C59.1229 8.73485 59.0516 8.78007 58.9733 8.80965C58.8951 8.83924 58.8117 8.85258 58.7282 8.84884Z" fill="white"/>
<path d="M81.0241 49.2432H27.9375V49.7543H81.0241V49.2432Z" fill="#00510C"/>
<path d="M29.9641 49.4918C29.9641 49.8962 29.8442 50.2915 29.6195 50.6277C29.3949 50.9639 29.0756 51.226 28.702 51.3807C28.3284 51.5355 27.9173 51.576 27.5207 51.4971C27.1241 51.4182 26.7598 51.2235 26.4738 50.9375C26.1879 50.6516 25.9932 50.2873 25.9143 49.8907C25.8354 49.4941 25.8759 49.083 26.0306 48.7094C26.1854 48.3358 26.4474 48.0165 26.7837 47.7918C27.1199 47.5672 27.5152 47.4473 27.9195 47.4473C28.4618 47.4473 28.9818 47.6627 29.3653 48.0461C29.7487 48.4295 29.9641 48.9496 29.9641 49.4918Z" fill="#00510C"/>
<path d="M56.5032 49.4918C56.5032 49.8962 56.3832 50.2915 56.1586 50.6277C55.9339 50.9639 55.6146 51.226 55.241 51.3807C54.8674 51.5355 54.4563 51.576 54.0597 51.4971C53.6631 51.4182 53.2988 51.2235 53.0129 50.9375C52.727 50.6516 52.5322 50.2873 52.4533 49.8907C52.3745 49.4941 52.415 49.083 52.5697 48.7094C52.7244 48.3358 52.9865 48.0165 53.3227 47.7918C53.6589 47.5672 54.0542 47.4473 54.4586 47.4473C55.0009 47.4473 55.5209 47.6627 55.9043 48.0461C56.2877 48.4295 56.5032 48.9496 56.5032 49.4918Z" fill="#00510C"/>
<path d="M83.05 49.4918C83.05 49.8962 82.9301 50.2915 82.7055 50.6277C82.4808 50.9639 82.1615 51.226 81.7879 51.3807C81.4143 51.5355 81.0032 51.576 80.6066 51.4971C80.21 51.4182 79.8457 51.2235 79.5598 50.9375C79.2738 50.6516 79.0791 50.2873 79.0002 49.8907C78.9213 49.4941 78.9618 49.083 79.1166 48.7094C79.2713 48.3358 79.5334 48.0165 79.8696 47.7918C80.2058 47.5672 80.6011 47.4473 81.0055 47.4473C81.5477 47.4473 82.0678 47.6627 82.4512 48.0461C82.8346 48.4295 83.05 48.9496 83.05 49.4918Z" fill="#00510C"/>
<path d="M82.1601 49.4929C82.1611 49.7175 82.0954 49.9374 81.9713 50.1247C81.8473 50.312 81.6704 50.4582 81.4631 50.5449C81.2559 50.6316 81.0276 50.6548 80.8071 50.6116C80.5867 50.5684 80.384 50.4607 80.2248 50.3022C80.0656 50.1437 79.957 49.9415 79.9128 49.7213C79.8686 49.501 79.8908 49.2726 79.9765 49.065C80.0622 48.8573 80.2077 48.6798 80.3944 48.5549C80.5811 48.43 80.8007 48.3633 81.0253 48.3633C81.1741 48.3626 81.3216 48.3913 81.4592 48.4478C81.5968 48.5043 81.722 48.5874 81.8274 48.6923C81.9328 48.7973 82.0165 48.9221 82.0736 49.0594C82.1307 49.1968 82.1601 49.3441 82.1601 49.4929Z" fill="white"/>
<path d="M26.5953 54.1335L26.2631 54.6038V55.0638C26.2631 55.0882 26.2534 55.1116 26.2361 55.1289C26.2189 55.1461 26.1955 55.1558 26.1711 55.1558C26.1467 55.1558 26.1233 55.1461 26.106 55.1289C26.0888 55.1116 26.0791 55.0882 26.0791 55.0638V54.6038L25.7315 54.1284C25.7225 54.1198 25.7154 54.1095 25.7105 54.0981C25.7056 54.0867 25.7031 54.0744 25.7031 54.062C25.7031 54.0496 25.7056 54.0373 25.7105 54.0259C25.7154 54.0144 25.7225 54.0041 25.7315 53.9955C25.7486 53.979 25.7716 53.9697 25.7954 53.9697C25.8192 53.9697 25.8421 53.979 25.8593 53.9955L26.1506 54.3942L26.442 53.9955C26.4591 53.979 26.482 53.9697 26.5059 53.9697C26.5297 53.9697 26.5526 53.979 26.5698 53.9955C26.5807 54.0027 26.5901 54.0121 26.5974 54.023C26.6047 54.0339 26.6096 54.0462 26.612 54.0591C26.6144 54.072 26.6142 54.0852 26.6113 54.098C26.6084 54.1108 26.603 54.1229 26.5953 54.1335Z" fill="black"/>
<path d="M27.6323 54.1166C27.7441 54.2315 27.8065 54.3856 27.8061 54.5459C27.8071 54.7064 27.7446 54.8607 27.6323 54.9753C27.5805 55.0332 27.5171 55.0795 27.4462 55.1112C27.3753 55.1429 27.2985 55.1593 27.2209 55.1593C27.1432 55.1593 27.0664 55.1429 26.9955 55.1112C26.9246 55.0795 26.8612 55.0332 26.8094 54.9753C26.6985 54.8602 26.6378 54.7057 26.6407 54.5459C26.6389 54.3863 26.6994 54.2323 26.8094 54.1166C26.862 54.0601 26.9257 54.015 26.9965 53.9842C27.0673 53.9534 27.1437 53.9375 27.2209 53.9375C27.2981 53.9375 27.3744 53.9534 27.4452 53.9842C27.516 54.015 27.5797 54.0601 27.6323 54.1166ZM27.6323 54.5459C27.6316 54.4359 27.5897 54.3301 27.5148 54.2495C27.4802 54.2122 27.4382 54.1826 27.3916 54.1623C27.345 54.1421 27.2947 54.1317 27.2439 54.1319C27.1929 54.1308 27.1423 54.1407 27.0955 54.161C27.0487 54.1813 27.0069 54.2115 26.973 54.2495C26.898 54.3301 26.8561 54.4359 26.8554 54.5459C26.854 54.6564 26.8962 54.7629 26.973 54.8424C27.0067 54.8811 27.0483 54.912 27.0951 54.9332C27.1418 54.9544 27.1926 54.9652 27.2439 54.9651C27.295 54.9643 27.3455 54.953 27.3921 54.9319C27.4387 54.9108 27.4804 54.8803 27.5148 54.8424C27.5841 54.7598 27.6189 54.6536 27.6119 54.5459H27.6323Z" fill="black"/>
<path d="M28.5582 55.1597C28.4226 55.1597 28.2926 55.1058 28.1967 55.01C28.1009 54.9141 28.047 54.7841 28.047 54.6485V54.0914C28.0463 54.0785 28.0483 54.0655 28.0529 54.0534C28.0575 54.0413 28.0646 54.0303 28.0738 54.0211C28.083 54.0119 28.094 54.0048 28.1061 54.0002C28.1182 53.9956 28.1312 53.9935 28.1441 53.9943C28.1567 53.9943 28.1691 53.9968 28.1806 54.0017C28.1921 54.0067 28.2025 54.0139 28.2111 54.023C28.2197 54.0321 28.2263 54.0429 28.2307 54.0546C28.235 54.0664 28.2368 54.0789 28.2361 54.0914V54.6945C28.2457 54.7684 28.2819 54.8363 28.3379 54.8854C28.3938 54.9346 28.4658 54.9617 28.5403 54.9617C28.6148 54.9617 28.6867 54.9346 28.7427 54.8854C28.7986 54.8363 28.8348 54.7684 28.8444 54.6945V54.0914C28.8437 54.0789 28.8456 54.0664 28.8499 54.0546C28.8542 54.0429 28.8609 54.0321 28.8695 54.023C28.8781 54.0139 28.8885 54.0067 28.9 54.0017C28.9115 53.9968 28.9239 53.9943 28.9364 53.9943C28.9493 53.9935 28.9623 53.9956 28.9744 54.0002C28.9865 54.0048 28.9975 54.0119 29.0067 54.0211C29.0159 54.0303 29.023 54.0413 29.0276 54.0534C29.0323 54.0655 29.0343 54.0785 29.0335 54.0914V54.6945C29.0228 54.816 28.969 54.9297 28.8818 55.015C28.7947 55.1003 28.6799 55.1516 28.5582 55.1597Z" fill="black"/>
<path d="M30.1908 55.0158C30.1989 55.0402 30.197 55.0669 30.1855 55.0898C30.174 55.1128 30.1539 55.1303 30.1295 55.1385H30.0886C30.0668 55.1439 30.044 55.1439 30.0222 55.1385C29.9998 55.1231 29.9822 55.1019 29.971 55.0772C29.9426 55.0148 29.9303 54.9462 29.9353 54.8778C29.9395 54.8524 29.9395 54.8265 29.9353 54.8012C29.9221 54.782 29.9046 54.7663 29.8842 54.7552C29.8554 54.7342 29.8221 54.7202 29.787 54.7143H29.5877V55.0823C29.5877 55.0948 29.5852 55.1072 29.5802 55.1187C29.5753 55.1302 29.5681 55.1406 29.559 55.1492C29.5499 55.1578 29.5391 55.1645 29.5274 55.1688C29.5156 55.1731 29.5031 55.175 29.4906 55.1743C29.4785 55.1743 29.4665 55.1719 29.4554 55.1673C29.4442 55.1627 29.4341 55.1559 29.4255 55.1473C29.417 55.1388 29.4102 55.1286 29.4056 55.1175C29.401 55.1063 29.3986 55.0944 29.3986 55.0823V54.06C29.3979 54.0475 29.3998 54.035 29.4041 54.0232C29.4084 54.0115 29.415 54.0007 29.4237 53.9916C29.4323 53.9825 29.4426 53.9753 29.4542 53.9703C29.4657 53.9654 29.4781 53.9629 29.4906 53.9629H29.7973C29.8454 53.9629 29.893 53.9724 29.9373 53.991C29.9817 54.0096 30.0219 54.0367 30.0557 54.071C30.0895 54.1052 30.1161 54.1458 30.134 54.1905C30.152 54.2351 30.1609 54.2828 30.1602 54.3309C30.1602 54.3839 30.1483 54.4363 30.1253 54.4841C30.1022 54.5319 30.0688 54.5739 30.0273 54.6069L30.0886 54.6734C30.1246 54.7281 30.1441 54.7919 30.1448 54.8574C30.1386 54.8895 30.1386 54.9224 30.1448 54.9545C30.1669 54.9689 30.1832 54.9906 30.1908 55.0158ZM29.9506 54.336C29.9513 54.3128 29.9473 54.2896 29.9389 54.2679C29.9305 54.2463 29.9178 54.2265 29.9015 54.2098C29.8853 54.1931 29.866 54.1799 29.8445 54.1708C29.8231 54.1618 29.8001 54.1571 29.7768 54.1571H29.5673V54.5098H29.7768C29.8229 54.5098 29.8671 54.4915 29.8997 54.4589C29.9323 54.4263 29.9506 54.3821 29.9506 54.336Z" fill="black"/>
<path d="M26.1785 56.136C26.29 56.2521 26.3523 56.4069 26.3523 56.5679C26.3523 56.7289 26.29 56.8836 26.1785 56.9998C26.1266 57.0551 26.0641 57.0994 25.9948 57.1301C25.9254 57.1609 25.8506 57.1774 25.7747 57.1787C25.6965 57.1783 25.6191 57.1622 25.5471 57.1315C25.4752 57.1008 25.41 57.056 25.3556 56.9998C25.2475 56.8819 25.1875 56.7278 25.1875 56.5679C25.1875 56.4079 25.2475 56.2538 25.3556 56.136C25.4093 56.0788 25.4743 56.0334 25.5464 56.0026C25.6186 55.9718 25.6963 55.9563 25.7747 55.9571C25.8507 55.9575 25.9258 55.9736 25.9953 56.0044C26.0648 56.0352 26.1272 56.08 26.1785 56.136ZM26.1785 56.5653C26.1778 56.4553 26.1359 56.3495 26.061 56.2689C26.0274 56.2318 25.9863 56.2021 25.9405 56.1819C25.8948 56.1616 25.8452 56.1512 25.7952 56.1513C25.7434 56.1501 25.6921 56.1599 25.6445 56.1802C25.5968 56.2005 25.5541 56.2307 25.5192 56.2689C25.4442 56.3495 25.4023 56.4553 25.4016 56.5653C25.4002 56.6758 25.4424 56.7823 25.5192 56.8618C25.5539 56.9006 25.5964 56.9316 25.644 56.9527C25.6916 56.9739 25.7431 56.9847 25.7952 56.9844C25.8456 56.9836 25.8952 56.9722 25.941 56.9511C25.9868 56.93 26.0276 56.8996 26.061 56.8618C26.1254 56.7844 26.1599 56.6864 26.1581 56.5858L26.1785 56.5653Z" fill="black"/>
<path d="M27.4748 57.0629C27.4788 57.0743 27.4806 57.0864 27.48 57.0985C27.4793 57.1106 27.4763 57.1225 27.4711 57.1334C27.4659 57.1443 27.4585 57.1541 27.4495 57.1622C27.4405 57.1703 27.43 57.1765 27.4186 57.1805H27.3777C27.3559 57.1859 27.333 57.1859 27.3112 57.1805C27.2888 57.1658 27.2697 57.1467 27.255 57.1243C27.2292 57.0593 27.217 56.9897 27.2192 56.9198C27.2282 56.895 27.2282 56.8679 27.2192 56.8431C27.206 56.824 27.1885 56.8083 27.1681 56.7971C27.1411 56.7764 27.1096 56.7624 27.0761 56.7563H26.8717V57.1243C26.8717 57.1487 26.862 57.1721 26.8447 57.1893C26.8275 57.2066 26.804 57.2163 26.7796 57.2163C26.7552 57.2163 26.7318 57.2066 26.7146 57.1893C26.6973 57.1721 26.6876 57.1487 26.6876 57.1243V56.102C26.6869 56.0895 26.6888 56.077 26.6931 56.0652C26.6974 56.0535 26.7041 56.0427 26.7127 56.0336C26.7213 56.0245 26.7317 56.0173 26.7432 56.0123C26.7547 56.0074 26.7671 56.0049 26.7796 56.0049H27.0812C27.1788 56.0049 27.2724 56.0437 27.3414 56.1127C27.4105 56.1817 27.4492 56.2753 27.4492 56.3729C27.4134 56.381 27.3806 56.3991 27.3546 56.4252C27.3287 56.4512 27.3107 56.484 27.3026 56.5199C27.2946 56.5557 27.2969 56.5932 27.3093 56.6278C27.3217 56.6624 27.3436 56.6927 27.3726 56.7154C27.4109 56.7689 27.4306 56.8335 27.4288 56.8994C27.4241 56.9316 27.4241 56.9643 27.4288 56.9965C27.4408 57.0036 27.4511 57.0132 27.459 57.0247C27.467 57.0362 27.4723 57.0492 27.4748 57.0629ZM27.2397 56.378C27.2397 56.3306 27.2208 56.2851 27.1873 56.2515C27.1537 56.218 27.1082 56.1991 27.0608 56.1991H26.8512V56.5518H27.0608C27.1073 56.5518 27.1521 56.5337 27.1855 56.5012C27.2189 56.4688 27.2383 56.4246 27.2397 56.378Z" fill="black"/>
<path d="M27.7501 57.1077V56.0854C27.7494 56.0729 27.7513 56.0604 27.7556 56.0486C27.7599 56.0369 27.7666 56.0261 27.7752 56.017C27.7838 56.0079 27.7942 56.0007 27.8057 55.9957C27.8172 55.9908 27.8296 55.9883 27.8421 55.9883H28.0466C28.195 56.002 28.3329 56.0707 28.4333 56.1809C28.5337 56.291 28.5894 56.4347 28.5894 56.5838C28.5894 56.7328 28.5337 56.8765 28.4333 56.9866C28.3329 57.0968 28.195 57.1655 28.0466 57.1792H27.8421C27.8209 57.1798 27.8001 57.1729 27.7834 57.1599C27.7666 57.1468 27.7549 57.1284 27.7501 57.1077ZM27.9393 57.0106H28.0466C28.1465 56.9993 28.2388 56.9517 28.3058 56.8767C28.3728 56.8018 28.4099 56.7047 28.4099 56.6042C28.4099 56.5036 28.3728 56.4066 28.3058 56.3317C28.2388 56.2567 28.1465 56.2091 28.0466 56.1978H27.9393V57.0106Z" fill="black"/>
<path d="M28.8908 57.1077V56.0854C28.8901 56.0729 28.8919 56.0604 28.8962 56.0486C28.9006 56.0369 28.9072 56.0261 28.9158 56.017C28.9245 56.0079 28.9348 56.0007 28.9463 55.9957C28.9579 55.9908 28.9703 55.9883 28.9828 55.9883H29.5399C29.5648 55.9896 29.5882 56.0004 29.6053 56.0185C29.6224 56.0365 29.6319 56.0605 29.6319 56.0854C29.6307 56.1094 29.6206 56.1321 29.6036 56.1491C29.5866 56.1661 29.5639 56.1762 29.5399 56.1774H29.0799V56.4892H29.4735C29.4975 56.4904 29.5202 56.5005 29.5372 56.5175C29.5541 56.5345 29.5642 56.5572 29.5655 56.5812C29.5662 56.5937 29.5643 56.6062 29.56 56.618C29.5557 56.6297 29.549 56.6405 29.5404 56.6496C29.5318 56.6587 29.5214 56.6659 29.5099 56.6709C29.4984 56.6758 29.486 56.6783 29.4735 56.6783H29.0799V56.9901H29.5399C29.5644 56.9925 29.5871 57.0037 29.604 57.0215C29.6209 57.0394 29.6308 57.0627 29.6319 57.0872C29.6307 57.1112 29.6206 57.1339 29.6036 57.1509C29.5866 57.1679 29.5639 57.178 29.5399 57.1792H28.9828C28.9615 57.1798 28.9408 57.1729 28.924 57.1599C28.9072 57.1468 28.8955 57.1284 28.8908 57.1077Z" fill="black"/>
<path d="M30.7143 57.0599C30.7182 57.0717 30.7198 57.0841 30.7188 57.0964C30.7178 57.1088 30.7144 57.1208 30.7086 57.1318C30.7029 57.1428 30.695 57.1525 30.6854 57.1603C30.6759 57.1682 30.6648 57.174 30.6529 57.1775H30.6121C30.5874 57.1764 30.5635 57.1687 30.5428 57.1552C30.5221 57.1417 30.5054 57.123 30.4945 57.1008C30.4666 57.0365 30.4543 56.9664 30.4587 56.8964C30.4629 56.871 30.4629 56.8451 30.4587 56.8197C30.4455 56.8006 30.428 56.7848 30.4076 56.7737C30.3788 56.7527 30.3456 56.7387 30.3105 56.7328H30.1111V57.1008C30.1098 57.1257 30.099 57.1491 30.081 57.1662C30.0629 57.1833 30.0389 57.1929 30.014 57.1928C29.9896 57.1928 29.9662 57.1831 29.949 57.1659C29.9317 57.1486 29.922 57.1252 29.922 57.1008V56.0786C29.9213 56.0661 29.9232 56.0535 29.9275 56.0418C29.9318 56.03 29.9385 56.0193 29.9471 56.0102C29.9557 56.0011 29.9661 55.9938 29.9776 55.9889C29.9891 55.984 30.0015 55.9814 30.014 55.9814H30.3207C30.3688 55.9814 30.4164 55.991 30.4608 56.0096C30.5051 56.0281 30.5454 56.0553 30.5791 56.0895C30.6129 56.1238 30.6395 56.1644 30.6575 56.209C30.6754 56.2536 30.6843 56.3014 30.6836 56.3495C30.6836 56.4025 30.6717 56.4549 30.6487 56.5027C30.6257 56.5504 30.5922 56.5924 30.5507 56.6255L30.6121 56.6919C30.648 56.7466 30.6675 56.8105 30.6683 56.8759C30.6618 56.908 30.6618 56.941 30.6683 56.9731C30.6826 56.9825 30.6944 56.9954 30.7024 57.0106C30.7104 57.0258 30.7145 57.0428 30.7143 57.0599ZM30.474 56.375C30.4741 56.3284 30.4559 56.2837 30.4235 56.2503C30.391 56.2169 30.3468 56.1975 30.3003 56.1961H30.0907V56.5488H30.3003C30.3464 56.5488 30.3906 56.5305 30.4231 56.4979C30.4557 56.4653 30.474 56.4211 30.474 56.375Z" fill="black"/>
<path d="M50.6876 55.0673V54.045C50.6869 54.0325 50.6888 54.02 50.6931 54.0082C50.6974 53.9964 50.7041 53.9857 50.7127 53.9766C50.7213 53.9675 50.7317 53.9603 50.7432 53.9553C50.7547 53.9504 50.7671 53.9478 50.7797 53.9479H50.979C51.0618 53.9402 51.1454 53.9499 51.2242 53.9763C51.3031 54.0027 51.3756 54.0453 51.4371 54.1014C51.4986 54.1574 51.5477 54.2257 51.5813 54.3018C51.6149 54.3779 51.6322 54.4601 51.6322 54.5433C51.6322 54.6265 51.6149 54.7088 51.5813 54.7849C51.5477 54.861 51.4986 54.9293 51.4371 54.9853C51.3756 55.0414 51.3031 55.0839 51.2242 55.1104C51.1454 55.1368 51.0618 55.1465 50.979 55.1388H50.795C50.7713 55.1433 50.7467 55.1384 50.7267 55.125C50.7066 55.1116 50.6926 55.0909 50.6876 55.0673ZM50.8768 54.9701H50.979C51.0362 54.9766 51.0941 54.9708 51.1489 54.9534C51.2037 54.9359 51.2543 54.907 51.2972 54.8686C51.3401 54.8303 51.3744 54.7833 51.3979 54.7308C51.4214 54.6782 51.4335 54.6213 51.4335 54.5638C51.4335 54.5062 51.4214 54.4493 51.3979 54.3968C51.3744 54.3443 51.3401 54.2973 51.2972 54.2589C51.2543 54.2206 51.2037 54.1917 51.1489 54.1742C51.0941 54.1567 51.0362 54.151 50.979 54.1574H50.8768V54.9701Z" fill="black"/>
<path d="M51.8205 55.0649V54.0426C51.8197 54.0296 51.8217 54.0167 51.8263 54.0046C51.831 53.9924 51.8381 53.9814 51.8473 53.9723C51.8564 53.9631 51.8674 53.956 51.8796 53.9513C51.8917 53.9467 51.9046 53.9447 51.9176 53.9455H52.4747C52.4996 53.9468 52.523 53.9576 52.5401 53.9757C52.5572 53.9937 52.5668 54.0177 52.5667 54.0426C52.5655 54.0666 52.5554 54.0893 52.5384 54.1063C52.5214 54.1233 52.4987 54.1333 52.4747 54.1346H52.0096V54.4464H52.4083C52.4323 54.4476 52.455 54.4577 52.472 54.4747C52.489 54.4917 52.499 54.5144 52.5003 54.5384C52.501 54.5509 52.4991 54.5634 52.4948 54.5752C52.4905 54.5869 52.4838 54.5977 52.4752 54.6068C52.4666 54.6159 52.4562 54.6231 52.4447 54.628C52.4332 54.633 52.4208 54.6355 52.4083 54.6355H52.0096V54.9473H52.4747C52.4996 54.9486 52.523 54.9594 52.5401 54.9775C52.5572 54.9956 52.5668 55.0195 52.5667 55.0444C52.5655 55.0684 52.5554 55.0911 52.5384 55.1081C52.5214 55.1251 52.4987 55.1352 52.4747 55.1364H51.9227C51.8998 55.1395 51.8765 55.1339 51.8576 55.1206C51.8386 55.1074 51.8254 55.0874 51.8205 55.0649Z" fill="black"/>
<path d="M52.8359 55.0647V54.0424C52.8359 54.0175 52.8454 53.9936 52.8625 53.9755C52.8797 53.9574 52.9031 53.9466 52.9279 53.9453C52.9533 53.9466 52.9773 53.9572 52.9952 53.9751C53.0132 53.9931 53.0238 54.0171 53.0251 54.0424V54.9471H53.4851C53.5099 54.9484 53.5334 54.9593 53.5505 54.9773C53.5676 54.9954 53.5771 55.0194 53.5771 55.0443C53.5759 55.0683 53.5658 55.0909 53.5488 55.1079C53.5318 55.1249 53.5091 55.135 53.4851 55.1363H52.9279C52.9067 55.1368 52.8859 55.13 52.8692 55.1169C52.8524 55.1039 52.8407 55.0854 52.8359 55.0647Z" fill="black"/>
<path d="M53.8126 54.0913C53.8119 54.0788 53.8138 54.0662 53.8181 54.0545C53.8224 54.0427 53.8291 54.032 53.8377 54.0229C53.8463 54.0138 53.8567 54.0065 53.8682 54.0016C53.8797 53.9967 53.8921 53.9941 53.9047 53.9941C53.9304 53.9941 53.9551 54.0044 53.9733 54.0226C53.9915 54.0408 54.0018 54.0655 54.0018 54.0913V55.1135C54.0005 55.1384 53.9896 55.1618 53.9716 55.1789C53.9535 55.196 53.9295 55.2056 53.9047 55.2055C53.8802 55.2055 53.8569 55.1958 53.8396 55.1786C53.8223 55.1613 53.8126 55.1379 53.8126 55.1135V54.0913Z" fill="black"/>
<path d="M54.7081 55.1458L54.289 54.1542C54.284 54.1429 54.2814 54.1306 54.2813 54.1182C54.2811 54.1058 54.2836 54.0935 54.2883 54.082C54.2931 54.0705 54.3001 54.0602 54.309 54.0515C54.3179 54.0428 54.3285 54.0361 54.3401 54.0316C54.3632 54.0229 54.3887 54.0234 54.4115 54.0329C54.4343 54.0424 54.4526 54.0602 54.4627 54.0827L54.795 54.8698L55.1221 54.0827C55.1322 54.0602 55.1505 54.0424 55.1733 54.0329C55.1961 54.0234 55.2217 54.0229 55.2448 54.0316C55.2564 54.0361 55.2669 54.0428 55.2758 54.0515C55.2847 54.0602 55.2918 54.0705 55.2965 54.082C55.3013 54.0935 55.3037 54.1058 55.3036 54.1182C55.3035 54.1306 55.3009 54.1429 55.2959 54.1542L54.8768 55.1458H54.8001H54.7081Z" fill="black"/>
<path d="M55.5392 55.0647V54.0424C55.5385 54.0299 55.5404 54.0174 55.5447 54.0056C55.549 53.9939 55.5557 53.9831 55.5643 53.974C55.5729 53.9649 55.5833 53.9577 55.5948 53.9528C55.6063 53.9478 55.6187 53.9453 55.6312 53.9453H56.1883C56.2132 53.9466 56.2366 53.9574 56.2537 53.9755C56.2709 53.9936 56.2804 54.0175 56.2804 54.0424C56.2791 54.0664 56.269 54.0891 56.252 54.1061C56.235 54.1231 56.2124 54.1332 56.1883 54.1344H55.7283V54.4462H56.1219C56.1459 54.4475 56.1686 54.4575 56.1856 54.4745C56.2026 54.4915 56.2127 54.5142 56.2139 54.5382C56.2146 54.5507 56.2127 54.5633 56.2084 54.575C56.2041 54.5868 56.1974 54.5975 56.1888 54.6066C56.1802 54.6157 56.1698 54.6229 56.1583 54.6279C56.1468 54.6328 56.1344 54.6354 56.1219 54.6353H55.7283V54.9471H56.1883C56.2132 54.9484 56.2366 54.9593 56.2537 54.9773C56.2709 54.9954 56.2804 55.0194 56.2804 55.0443C56.2791 55.0683 56.269 55.0909 56.252 55.1079C56.235 55.1249 56.2124 55.135 56.1883 55.1363H55.6312C55.61 55.1368 55.5892 55.13 55.5724 55.1169C55.5557 55.1039 55.5439 55.0854 55.5392 55.0647Z" fill="black"/>
<path d="M57.3705 55.0158C57.3786 55.0402 57.3767 55.0669 57.3652 55.0898C57.3537 55.1128 57.3336 55.1303 57.3092 55.1385H57.2683C57.2465 55.1439 57.2237 55.1439 57.2018 55.1385C57.1795 55.1231 57.1618 55.1019 57.1507 55.0772C57.1223 55.0148 57.11 54.9462 57.115 54.8778C57.1191 54.8524 57.1191 54.8265 57.115 54.8012C57.1018 54.782 57.0843 54.7663 57.0638 54.7552C57.0351 54.7342 57.0018 54.7202 56.9667 54.7143H56.7674V55.0823C56.7661 55.1071 56.7553 55.1305 56.7372 55.1477C56.7191 55.1648 56.6952 55.1743 56.6703 55.1743C56.6582 55.1743 56.6462 55.1719 56.6351 55.1673C56.6239 55.1627 56.6138 55.1559 56.6052 55.1473C56.5967 55.1388 56.5899 55.1286 56.5853 55.1175C56.5806 55.1063 56.5783 55.0944 56.5783 55.0823V54.06C56.5776 54.0475 56.5794 54.035 56.5837 54.0232C56.5881 54.0115 56.5947 54.0007 56.6033 53.9916C56.6119 53.9825 56.6223 53.9753 56.6338 53.9703C56.6453 53.9654 56.6577 53.9629 56.6703 53.9629H56.977C57.025 53.9629 57.0727 53.9724 57.117 53.991C57.1614 54.0096 57.2016 54.0367 57.2354 54.071C57.2692 54.1052 57.2958 54.1458 57.3137 54.1905C57.3316 54.2351 57.3405 54.2828 57.3399 54.3309C57.3399 54.3839 57.3279 54.4363 57.3049 54.4841C57.2819 54.5319 57.2484 54.5739 57.207 54.6069L57.2683 54.6734C57.3042 54.7281 57.3238 54.7919 57.3245 54.8574C57.3183 54.8895 57.3183 54.9224 57.3245 54.9545C57.3466 54.9689 57.3628 54.9906 57.3705 55.0158ZM57.1303 54.336C57.131 54.3128 57.127 54.2896 57.1186 54.2679C57.1101 54.2463 57.0974 54.2265 57.0812 54.2098C57.065 54.1931 57.0456 54.1799 57.0242 54.1708C57.0028 54.1618 56.9798 54.1571 56.9565 54.1571H56.7469V54.5098H56.9565C57.0026 54.5098 57.0468 54.4915 57.0794 54.4589C57.112 54.4263 57.1303 54.3821 57.1303 54.336Z" fill="black"/>
<path d="M58.4293 54.1358L58.0817 54.6112V55.0712C58.0817 55.0833 58.0794 55.0952 58.0747 55.1064C58.0701 55.1176 58.0633 55.1277 58.0548 55.1362C58.0462 55.1448 58.0361 55.1516 58.0249 55.1562C58.0138 55.1608 58.0018 55.1632 57.9897 55.1632C57.9648 55.1632 57.9409 55.1537 57.9228 55.1366C57.9047 55.1195 57.8939 55.0961 57.8926 55.0712V54.6061L57.5502 54.1307C57.5428 54.121 57.5374 54.1099 57.5343 54.0981C57.5312 54.0862 57.5305 54.0739 57.5321 54.0618C57.5338 54.0497 57.5378 54.0381 57.544 54.0275C57.5501 54.017 57.5583 54.0077 57.5681 54.0004C57.5778 53.993 57.5889 53.9876 57.6007 53.9845C57.6125 53.9814 57.6248 53.9806 57.6369 53.9823C57.649 53.984 57.6607 53.988 57.6712 53.9942C57.6818 54.0003 57.691 54.0085 57.6984 54.0183L57.9897 54.4169L58.2811 54.0183C58.2982 54.0017 58.3211 53.9924 58.345 53.9924C58.3688 53.9924 58.3917 54.0017 58.4089 54.0183C58.4249 54.0328 58.4356 54.0522 58.4393 54.0735C58.443 54.0948 58.4395 54.1167 58.4293 54.1358Z" fill="black"/>
<path d="M51.6422 56.1362C51.7537 56.2523 51.816 56.4071 51.816 56.5681C51.816 56.7291 51.7537 56.8838 51.6422 57C51.5908 57.056 51.5284 57.1008 51.4589 57.1316C51.3895 57.1624 51.3144 57.1785 51.2384 57.1789C51.1608 57.1786 51.0842 57.1627 51.013 57.1319C50.9418 57.1012 50.8776 57.0563 50.8243 57C50.7162 56.8821 50.6562 56.728 50.6562 56.5681C50.6562 56.4081 50.7162 56.254 50.8243 56.1362C50.8771 56.0791 50.9411 56.0337 51.0124 56.0029C51.0837 55.9721 51.1607 55.9566 51.2384 55.9573C51.3148 55.955 51.3907 55.9699 51.4606 56.0008C51.5305 56.0318 51.5925 56.078 51.6422 56.1362ZM51.6422 56.5655C51.641 56.4565 51.6012 56.3514 51.5297 56.2691C51.4944 56.2321 51.452 56.2027 51.405 56.1826C51.358 56.1625 51.3074 56.1521 51.2563 56.1521C51.2051 56.1521 51.1546 56.1625 51.1076 56.1826C51.0606 56.2027 51.0181 56.2321 50.9828 56.2691C50.9079 56.3497 50.8659 56.4555 50.8652 56.5655C50.8638 56.676 50.9061 56.7825 50.9828 56.862C51.0173 56.9003 51.0595 56.9309 51.1066 56.9519C51.1537 56.9729 51.2047 56.9837 51.2563 56.9837C51.3078 56.9837 51.3588 56.9729 51.4059 56.9519C51.453 56.9309 51.4952 56.9003 51.5297 56.862C51.5908 56.7831 51.6233 56.6857 51.6217 56.586L51.6422 56.5655Z" fill="black"/>
<path d="M52.5548 56.7396H52.3299V57.1077C52.3286 57.1325 52.3178 57.1559 52.2997 57.1731C52.2816 57.1902 52.2577 57.1997 52.2328 57.1997C52.2084 57.1997 52.185 57.19 52.1677 57.1727C52.1505 57.1555 52.1408 57.1321 52.1408 57.1077V56.0854C52.1401 56.0729 52.1419 56.0604 52.1462 56.0486C52.1506 56.0369 52.1572 56.0261 52.1658 56.017C52.1744 56.0079 52.1848 56.0007 52.1963 55.9957C52.2078 55.9908 52.2202 55.9883 52.2328 55.9883H52.5395C52.6289 55.9989 52.7114 56.0419 52.7713 56.1093C52.8311 56.1767 52.8642 56.2636 52.8642 56.3537C52.8642 56.4438 52.8311 56.5308 52.7713 56.5982C52.7114 56.6655 52.6289 56.7086 52.5395 56.7192L52.5548 56.7396ZM52.3452 56.5505H52.5548C52.6009 56.5505 52.6451 56.5322 52.6777 56.4996C52.7103 56.467 52.7286 56.4228 52.7286 56.3767C52.7286 56.3302 52.7104 56.2854 52.678 56.252C52.6455 56.2186 52.6013 56.1992 52.5548 56.1978H52.3299L52.3452 56.5505Z" fill="black"/>
<path d="M53.8648 56.1969H53.5939V57.1068C53.5939 57.1312 53.5842 57.1546 53.567 57.1718C53.5497 57.1891 53.5263 57.1988 53.5019 57.1988C53.477 57.1988 53.4531 57.1893 53.435 57.1721C53.4169 57.155 53.4061 57.1316 53.4048 57.1068V56.1969H53.139C53.1269 56.1969 53.115 56.1946 53.1038 56.1899C53.0927 56.1853 53.0825 56.1785 53.074 56.17C53.0654 56.1614 53.0586 56.1513 53.054 56.1401C53.0494 56.129 53.047 56.117 53.047 56.1049C53.0463 56.0924 53.0482 56.0799 53.0525 56.0681C53.0568 56.0564 53.0635 56.0456 53.0721 56.0365C53.0807 56.0274 53.0911 56.0202 53.1026 56.0153C53.1141 56.0103 53.1265 56.0078 53.139 56.0078H53.8648C53.8774 56.0078 53.8898 56.0103 53.9013 56.0153C53.9128 56.0202 53.9232 56.0274 53.9318 56.0365C53.9404 56.0456 53.9471 56.0564 53.9514 56.0681C53.9557 56.0799 53.9575 56.0924 53.9568 56.1049C53.9568 56.1293 53.9471 56.1527 53.9299 56.17C53.9126 56.1872 53.8892 56.1969 53.8648 56.1969Z" fill="black"/>
<path d="M54.258 56.1051C54.2572 56.0921 54.2592 56.0792 54.2638 56.0671C54.2685 56.0549 54.2756 56.0439 54.2848 56.0348C54.2939 56.0256 54.3049 56.0185 54.3171 56.0138C54.3292 56.0092 54.3421 56.0072 54.3551 56.008C54.3676 56.0079 54.38 56.0105 54.3915 56.0154C54.403 56.0204 54.4134 56.0276 54.422 56.0367C54.4306 56.0458 54.4373 56.0565 54.4416 56.0683C54.4459 56.0801 54.4478 56.0926 54.4471 56.1051V57.1274C54.4471 57.1518 54.4374 57.1752 54.4201 57.1924C54.4029 57.2097 54.3795 57.2194 54.3551 57.2194C54.3426 57.22 54.3301 57.2182 54.3183 57.2139C54.3065 57.2096 54.2958 57.2029 54.2867 57.1943C54.2776 57.1857 54.2704 57.1753 54.2654 57.1638C54.2605 57.1523 54.2579 57.1399 54.258 57.1274V56.1051Z" fill="black"/>
<path d="M55.702 56.136C55.8135 56.2521 55.8758 56.4069 55.8758 56.5679C55.8758 56.7289 55.8135 56.8836 55.702 56.9998C55.6502 57.0553 55.5878 57.0998 55.5184 57.1305C55.449 57.1613 55.3741 57.1777 55.2982 57.1787C55.2199 57.1783 55.1425 57.1622 55.0706 57.1315C54.9986 57.1008 54.9335 57.056 54.879 56.9998C54.7709 56.8819 54.7109 56.7278 54.7109 56.5679C54.7109 56.4079 54.7709 56.2538 54.879 56.136C54.9327 56.0788 54.9977 56.0334 55.0698 56.0026C55.142 55.9718 55.2197 55.9563 55.2982 55.9571C55.3743 55.9568 55.4495 55.9727 55.5191 56.0035C55.5887 56.0343 55.651 56.0795 55.702 56.136ZM55.702 56.5653C55.7013 56.4553 55.6593 56.3495 55.5844 56.2689C55.5508 56.2318 55.5098 56.2021 55.464 56.1819C55.4182 56.1616 55.3687 56.1512 55.3186 56.1513C55.2669 56.1501 55.2155 56.1599 55.1679 56.1802C55.1203 56.2005 55.0776 56.2307 55.0426 56.2689C54.9677 56.3495 54.9257 56.4553 54.925 56.5653C54.9236 56.6758 54.9659 56.7823 55.0426 56.8618C55.0773 56.9006 55.1199 56.9316 55.1674 56.9527C55.215 56.9739 55.2665 56.9847 55.3186 56.9844C55.369 56.9836 55.4187 56.9722 55.4644 56.9511C55.5102 56.93 55.551 56.8996 55.5844 56.8618C55.6489 56.7844 55.6834 56.6864 55.6815 56.5858L55.702 56.5653Z" fill="black"/>
<path d="M56.3481 57.1083C56.3481 57.1327 56.3384 57.1561 56.3211 57.1734C56.3039 57.1906 56.2805 57.2003 56.2561 57.2003C56.2317 57.2003 56.2083 57.1906 56.191 57.1734C56.1738 57.1561 56.1641 57.1327 56.1641 57.1083V56.1371C56.1639 56.1225 56.167 56.108 56.1732 56.0947C56.1794 56.0814 56.1885 56.0697 56.1999 56.0605C56.2179 56.0436 56.2416 56.0342 56.2663 56.0342C56.291 56.0342 56.3147 56.0436 56.3327 56.0605L56.8797 56.8221V56.1371C56.8797 56.1127 56.8894 56.0893 56.9066 56.0721C56.9239 56.0548 56.9473 56.0451 56.9717 56.0451C56.9961 56.0451 57.0195 56.0548 57.0367 56.0721C57.054 56.0893 57.0637 56.1127 57.0637 56.1371V57.1236C57.0637 57.148 57.054 57.1714 57.0367 57.1887C57.0195 57.2059 56.9961 57.2156 56.9717 57.2156C56.95 57.2032 56.9336 57.1832 56.9257 57.1594L56.3787 56.4029L56.3481 57.1083Z" fill="black"/>
<path d="M57.4401 56.9033C57.4563 56.8871 57.4784 56.878 57.5014 56.878C57.5244 56.878 57.5464 56.8871 57.5627 56.9033C57.655 56.981 57.7695 57.0275 57.8899 57.0362C57.9651 57.0377 58.0388 57.0144 58.0994 56.9698C58.1213 56.9572 58.1398 56.9395 58.1531 56.9181C58.1665 56.8967 58.1744 56.8723 58.1761 56.8471C58.1812 56.8305 58.1812 56.8126 58.1761 56.796C58.1646 56.7742 58.1468 56.7564 58.125 56.7449C58.0526 56.7028 57.9727 56.6751 57.8899 56.6631C57.8143 56.6493 57.7406 56.627 57.6701 56.5966C57.6063 56.5673 57.5516 56.5214 57.5116 56.4638C57.4868 56.4221 57.4744 56.3742 57.4758 56.3257C57.4778 56.2767 57.4907 56.2287 57.5137 56.1854C57.5367 56.142 57.5692 56.1044 57.6087 56.0753C57.6962 56.0164 57.7998 55.9861 57.9052 55.9884C58.0401 55.9944 58.17 56.0407 58.2783 56.1213C58.2924 56.1386 58.3001 56.1603 58.3001 56.1826C58.3001 56.205 58.2924 56.2266 58.2783 56.244C58.2726 56.2537 58.2649 56.2622 58.2558 56.2688C58.2466 56.2755 58.2362 56.2801 58.2251 56.2825C58.2141 56.2849 58.2027 56.285 58.1916 56.2828C58.1805 56.2805 58.17 56.276 58.1608 56.2695C58.0814 56.2073 57.9853 56.1699 57.8847 56.1622C57.8172 56.1596 57.7507 56.1794 57.6956 56.2184C57.6771 56.23 57.6614 56.2458 57.6499 56.2644C57.6384 56.283 57.6313 56.304 57.6292 56.3257C57.6257 56.3409 57.6257 56.3566 57.6292 56.3718L57.6752 56.4178C57.742 56.4551 57.8145 56.481 57.8899 56.4944C57.9705 56.5074 58.0494 56.5297 58.125 56.5609C58.192 56.5942 58.2499 56.6433 58.2936 56.704C58.3201 56.7471 58.3343 56.7966 58.3345 56.8471C58.3332 56.9001 58.319 56.952 58.2932 56.9983C58.2674 57.0446 58.2307 57.0839 58.1863 57.1129C58.0958 57.1785 57.9863 57.2126 57.8745 57.21C57.7135 57.2034 57.559 57.1442 57.4349 57.0413C57.4255 57.0324 57.418 57.0214 57.4131 57.0093C57.4081 56.9972 57.4058 56.9842 57.4063 56.9712C57.4068 56.9581 57.4101 56.9453 57.4159 56.9336C57.4217 56.9219 57.4299 56.9116 57.4401 56.9033Z" fill="black"/>
<path d="M77.7893 54.6992H77.5797V55.0673C77.5797 55.0917 77.5701 55.1151 77.5528 55.1323C77.5355 55.1496 77.5121 55.1593 77.4877 55.1593C77.4628 55.1593 77.4389 55.1498 77.4208 55.1326C77.4027 55.1155 77.3919 55.0921 77.3906 55.0673V54.045C77.3906 54.0192 77.4009 53.9945 77.4191 53.9763C77.4373 53.9581 77.462 53.9479 77.4877 53.9479H77.7893C77.8409 53.9418 77.8933 53.9466 77.9429 53.9622C77.9925 53.9778 78.0382 54.0037 78.0771 54.0382C78.1159 54.0728 78.147 54.1151 78.1683 54.1625C78.1896 54.21 78.2006 54.2613 78.2006 54.3133C78.2006 54.3653 78.1896 54.4167 78.1683 54.4641C78.147 54.5115 78.1159 54.5539 78.0771 54.5884C78.0382 54.623 77.9925 54.6489 77.9429 54.6644C77.8933 54.68 77.8409 54.6849 77.7893 54.6788V54.6992ZM77.5797 54.5101H77.7893C77.8355 54.5089 77.8796 54.4904 77.9127 54.4582C77.9458 54.426 77.9657 54.3825 77.9682 54.3363C77.9682 54.2889 77.9494 54.2434 77.9158 54.2098C77.8823 54.1763 77.8368 54.1574 77.7893 54.1574H77.5797V54.5101Z" fill="black"/>
<path d="M78.8707 54.8799H78.4567L78.3953 55.1151C78.3887 55.1339 78.3762 55.15 78.3596 55.1611C78.343 55.1722 78.3233 55.1775 78.3033 55.1764H78.2727C78.2492 55.1672 78.2303 55.1493 78.2198 55.1264C78.2093 55.1036 78.2081 55.0775 78.2164 55.0537L78.5896 54.0315C78.597 54.0136 78.61 53.9986 78.6265 53.9885C78.643 53.9784 78.6623 53.9737 78.6816 53.9752C78.701 53.9729 78.7207 53.9772 78.7374 53.9874C78.7541 53.9976 78.7668 54.0131 78.7736 54.0315L79.1467 55.0537C79.1516 55.0654 79.154 55.078 79.1537 55.0907C79.1535 55.1034 79.1507 55.1158 79.1454 55.1274C79.1401 55.1389 79.1325 55.1492 79.123 55.1576C79.1136 55.1661 79.1025 55.1724 79.0905 55.1764H79.0598C79.0408 55.1764 79.0222 55.1706 79.0066 55.1596C78.991 55.1486 78.9793 55.133 78.9729 55.1151L78.8707 54.8799ZM78.7991 54.6959L78.6611 54.3279L78.5231 54.6959H78.7991Z" fill="black"/>
<path d="M80.0638 54.1318L79.7162 54.6072V55.0672C79.7162 55.0797 79.7137 55.0921 79.7087 55.1036C79.7038 55.1151 79.6966 55.1255 79.6875 55.1341C79.6784 55.1428 79.6676 55.1494 79.6559 55.1537C79.6441 55.158 79.6316 55.1599 79.6191 55.1592C79.5951 55.158 79.5724 55.1479 79.5554 55.1309C79.5384 55.1139 79.5283 55.0912 79.5271 55.0672V54.6021L79.1846 54.1267C79.1756 54.1181 79.1685 54.1078 79.1636 54.0964C79.1588 54.085 79.1562 54.0727 79.1562 54.0603C79.1562 54.0479 79.1588 54.0356 79.1636 54.0241C79.1685 54.0127 79.1756 54.0024 79.1846 53.9938C79.1928 53.985 79.2026 53.9779 79.2136 53.9731C79.2246 53.9683 79.2365 53.9658 79.2485 53.9658C79.2605 53.9658 79.2724 53.9683 79.2834 53.9731C79.2944 53.9779 79.3043 53.985 79.3124 53.9938L79.6038 54.3925L79.8951 53.9938C79.9131 53.9769 79.9369 53.9675 79.9615 53.9675C79.9862 53.9675 80.01 53.9769 80.028 53.9938C80.0508 54.0076 80.0672 54.0298 80.0739 54.0556C80.0806 54.0813 80.077 54.1087 80.0638 54.1318Z" fill="black"/>
<path d="M81.2801 54.0913V55.1135C81.2788 55.1384 81.268 55.1618 81.2499 55.1789C81.2318 55.196 81.2079 55.2056 81.183 55.2055C81.1586 55.2055 81.1352 55.1958 81.1179 55.1786C81.1007 55.1613 81.091 55.1379 81.091 55.1135V54.3979L80.8456 54.7353C80.8372 54.7479 80.8258 54.7582 80.8124 54.7654C80.799 54.7725 80.7841 54.7762 80.7689 54.7762C80.7531 54.7758 80.7376 54.7719 80.7235 54.7649C80.7093 54.7578 80.697 54.7477 80.6872 54.7353L80.4469 54.3979V55.1135C80.4456 55.1384 80.4348 55.1618 80.4167 55.1789C80.3987 55.196 80.3747 55.2056 80.3498 55.2055C80.3254 55.2055 80.302 55.1958 80.2848 55.1786C80.2675 55.1613 80.2578 55.1379 80.2578 55.1135V54.0913C80.2578 54.0664 80.2673 54.0424 80.2844 54.0243C80.3016 54.0063 80.325 53.9955 80.3498 53.9941C80.3647 53.9952 80.3793 53.9994 80.3925 54.0065C80.4057 54.0135 80.4173 54.0232 80.4265 54.035L80.7638 54.5053L81.1012 54.035C81.1099 54.0227 81.1214 54.0126 81.1347 54.0055C81.148 53.9984 81.1628 53.9945 81.1779 53.9941C81.2041 53.9941 81.2294 54.0042 81.2484 54.0223C81.2674 54.0403 81.2788 54.065 81.2801 54.0913Z" fill="black"/>
<path d="M81.6095 55.0647V54.0424C81.6088 54.0299 81.6107 54.0174 81.615 54.0056C81.6193 53.9939 81.626 53.9831 81.6346 53.974C81.6432 53.9649 81.6536 53.9577 81.6651 53.9528C81.6766 53.9478 81.689 53.9453 81.7015 53.9453H82.2587C82.2712 53.9453 82.2836 53.9478 82.2951 53.9528C82.3066 53.9577 82.317 53.9649 82.3256 53.974C82.3342 53.9831 82.3409 53.9939 82.3452 54.0056C82.3495 54.0174 82.3514 54.0299 82.3507 54.0424C82.3507 54.0668 82.341 54.0902 82.3237 54.1075C82.3065 54.1247 82.2831 54.1344 82.2587 54.1344H81.7986V54.4462H82.1922C82.2168 54.4473 82.2401 54.4572 82.2579 54.4741C82.2757 54.491 82.2869 54.5138 82.2893 54.5382C82.2893 54.564 82.2791 54.5887 82.2609 54.6069C82.2427 54.6251 82.218 54.6353 82.1922 54.6353H81.7986V54.9471H82.2587C82.2712 54.9471 82.2836 54.9497 82.2951 54.9546C82.3066 54.9595 82.317 54.9668 82.3256 54.9759C82.3342 54.985 82.3409 54.9957 82.3452 55.0075C82.3495 55.0192 82.3514 55.0317 82.3507 55.0443C82.3507 55.0563 82.3483 55.0683 82.3437 55.0795C82.339 55.0906 82.3323 55.1008 82.3237 55.1093C82.3152 55.1179 82.305 55.1246 82.2939 55.1293C82.2827 55.1339 82.2707 55.1363 82.2587 55.1363H81.7015C81.6803 55.1368 81.6595 55.13 81.6427 55.1169C81.626 55.1039 81.6142 55.0854 81.6095 55.0647Z" fill="black"/>
<path d="M82.8063 55.069C82.8051 55.093 82.795 55.1157 82.778 55.1327C82.761 55.1497 82.7383 55.1597 82.7143 55.161C82.7018 55.1617 82.6893 55.1598 82.6775 55.1555C82.6658 55.1512 82.655 55.1445 82.6459 55.1359C82.6368 55.1273 82.6296 55.1169 82.6247 55.1054C82.6197 55.0939 82.6172 55.0815 82.6172 55.069V54.0927C82.6183 54.0778 82.6225 54.0633 82.6295 54.0501C82.6366 54.0369 82.6463 54.0253 82.6581 54.016C82.6752 53.9995 82.6981 53.9902 82.722 53.9902C82.7458 53.9902 82.7687 53.9995 82.7859 54.016L83.3328 54.7776V54.0927C83.334 54.0687 83.3441 54.046 83.3611 54.029C83.3781 54.012 83.4008 54.0019 83.4248 54.0007C83.4497 54.0007 83.4736 54.0102 83.4917 54.0273C83.5098 54.0444 83.5206 54.0678 83.5219 54.0927V55.0792C83.5206 55.1041 83.5098 55.1275 83.4917 55.1446C83.4736 55.1617 83.4497 55.1712 83.4248 55.1712C83.4117 55.1706 83.399 55.1671 83.3875 55.1609C83.376 55.1547 83.366 55.146 83.3583 55.1354L82.8165 54.3841L82.8063 55.069Z" fill="black"/>
<path d="M84.6434 54.159H84.3725V55.0688C84.3725 55.0813 84.37 55.0937 84.365 55.1053C84.3601 55.1168 84.3529 55.1271 84.3438 55.1358C84.3347 55.1444 84.3239 55.151 84.3122 55.1554C84.3004 55.1597 84.2879 55.1615 84.2754 55.1608C84.2514 55.1596 84.2287 55.1495 84.2117 55.1325C84.1947 55.1155 84.1846 55.0928 84.1834 55.0688V54.159H83.9176C83.8927 54.159 83.8687 54.1495 83.8507 54.1324C83.8326 54.1153 83.8218 54.0919 83.8205 54.067C83.8197 54.054 83.8217 54.0411 83.8263 54.029C83.831 54.0169 83.8381 54.0058 83.8473 53.9967C83.8564 53.9875 83.8674 53.9804 83.8796 53.9758C83.8917 53.9711 83.9046 53.9691 83.9176 53.9699H84.6434C84.6559 53.9699 84.6683 53.9724 84.6798 53.9773C84.6913 53.9823 84.7017 53.9895 84.7103 53.9986C84.7189 54.0077 84.7256 54.0185 84.7299 54.0302C84.7342 54.042 84.7361 54.0545 84.7354 54.067C84.7342 54.091 84.7241 54.1137 84.7071 54.1307C84.6901 54.1477 84.6674 54.1578 84.6434 54.159Z" fill="black"/>
<path d="M78.6109 56.1049V57.1272C78.6096 57.1521 78.5988 57.1755 78.5807 57.1926C78.5627 57.2097 78.5387 57.2192 78.5138 57.2192C78.4894 57.2192 78.466 57.2095 78.4487 57.1923C78.4315 57.175 78.4218 57.1516 78.4218 57.1272V56.4116L78.1765 56.749C78.1677 56.7613 78.1562 56.7714 78.1429 56.7785C78.1296 56.7856 78.1149 56.7895 78.0998 56.7899C78.0847 56.7895 78.0699 56.7856 78.0566 56.7785C78.0433 56.7714 78.0318 56.7613 78.0231 56.749L77.7829 56.4116V57.1272C77.7816 57.1521 77.7708 57.1755 77.7527 57.1926C77.7346 57.2097 77.7107 57.2192 77.6858 57.2192C77.6614 57.2192 77.638 57.2095 77.6207 57.1923C77.6035 57.175 77.5938 57.1516 77.5938 57.1272V56.1049C77.5937 56.08 77.6032 56.0561 77.6204 56.038C77.6375 56.0199 77.6609 56.0091 77.6858 56.0078C77.7007 56.0089 77.7152 56.0131 77.7284 56.0202C77.7416 56.0272 77.7532 56.0369 77.7624 56.0487L78.0998 56.5189L78.4371 56.0487C78.4459 56.0364 78.4573 56.0263 78.4706 56.0192C78.4839 56.0121 78.4987 56.0082 78.5138 56.0078C78.5392 56.0091 78.5631 56.0197 78.5811 56.0376C78.599 56.0556 78.6097 56.0796 78.6109 56.1049Z" fill="black"/>
<path d="M78.9376 57.1077V56.0854C78.9369 56.0729 78.9388 56.0604 78.9431 56.0486C78.9474 56.0369 78.9541 56.0261 78.9627 56.017C78.9713 56.0079 78.9817 56.0007 78.9932 55.9957C79.0047 55.9908 79.0171 55.9883 79.0297 55.9883H79.5868C79.6116 55.9896 79.6351 56.0004 79.6522 56.0185C79.6693 56.0365 79.6788 56.0605 79.6788 56.0854C79.6776 56.1094 79.6675 56.1321 79.6505 56.1491C79.6335 56.1661 79.6108 56.1762 79.5868 56.1774H79.1268V56.4892H79.5203C79.5449 56.4903 79.5682 56.5002 79.586 56.5171C79.6039 56.534 79.615 56.5567 79.6175 56.5812C79.6175 56.607 79.6072 56.6317 79.589 56.6499C79.5708 56.6681 79.5461 56.6783 79.5203 56.6783H79.1268V56.9901H79.5868C79.6112 56.9925 79.634 57.0037 79.6509 57.0215C79.6678 57.0394 79.6777 57.0627 79.6788 57.0872C79.6776 57.1112 79.6675 57.1339 79.6505 57.1509C79.6335 57.1679 79.6108 57.178 79.5868 57.1792H79.0297C79.0084 57.1798 78.9876 57.1729 78.9709 57.1599C78.9541 57.1468 78.9424 57.1284 78.9376 57.1077Z" fill="black"/>
<path d="M80.6692 56.1995H80.4034V57.1093C80.4035 57.1218 80.4009 57.1342 80.396 57.1457C80.391 57.1572 80.3838 57.1676 80.3747 57.1762C80.3656 57.1849 80.3549 57.1915 80.3431 57.1958C80.3313 57.2001 80.3188 57.202 80.3063 57.2013C80.2819 57.2013 80.2585 57.1916 80.2413 57.1744C80.224 57.1571 80.2143 57.1337 80.2143 57.1093V56.1995H79.9281C79.9037 56.1995 79.8803 56.1898 79.863 56.1725C79.8458 56.1553 79.8361 56.1319 79.8361 56.1075C79.8354 56.095 79.8372 56.0825 79.8416 56.0707C79.8459 56.0589 79.8525 56.0482 79.8611 56.0391C79.8698 56.03 79.8801 56.0228 79.8917 56.0178C79.9032 56.0129 79.9156 56.0103 79.9281 56.0104H80.6539C80.6681 56.007 80.683 56.007 80.6972 56.0102C80.7115 56.0134 80.7249 56.0197 80.7364 56.0288C80.7478 56.0379 80.7571 56.0495 80.7635 56.0627C80.7698 56.0758 80.7731 56.0903 80.7731 56.1049C80.7731 56.1196 80.7698 56.134 80.7635 56.1472C80.7571 56.1604 80.7478 56.1719 80.7364 56.181C80.7249 56.1901 80.7115 56.1965 80.6972 56.1997C80.683 56.2029 80.6681 56.2028 80.6539 56.1995H80.6692Z" fill="black"/>
<path d="M81.047 57.1077V56.0854C81.0463 56.0729 81.0482 56.0604 81.0525 56.0486C81.0568 56.0369 81.0635 56.0261 81.0721 56.017C81.0807 56.0079 81.0911 56.0007 81.1026 55.9957C81.1141 55.9908 81.1265 55.9883 81.139 55.9883C81.1648 55.9883 81.1895 55.9985 81.2077 56.0167C81.2259 56.0349 81.2361 56.0596 81.2361 56.0854V56.4943H81.6757V56.0854C81.675 56.0729 81.6769 56.0604 81.6812 56.0486C81.6855 56.0369 81.6922 56.0261 81.7008 56.017C81.7094 56.0079 81.7198 56.0007 81.7313 55.9957C81.7428 55.9908 81.7552 55.9883 81.7677 55.9883C81.7935 55.9883 81.8182 55.9985 81.8364 56.0167C81.8546 56.0349 81.8648 56.0596 81.8648 56.0854V57.1077C81.8635 57.1325 81.8527 57.1559 81.8346 57.1731C81.8166 57.1902 81.7926 57.1997 81.7677 57.1997C81.7433 57.1997 81.7199 57.19 81.7027 57.1727C81.6854 57.1555 81.6757 57.1321 81.6757 57.1077V56.6988H81.2361V57.1077C81.2348 57.1325 81.224 57.1559 81.2059 57.1731C81.1879 57.1902 81.1639 57.1997 81.139 57.1997C81.1146 57.1997 81.0912 57.19 81.074 57.1727C81.0567 57.1555 81.047 57.1321 81.047 57.1077Z" fill="black"/>
<path d="M83.1395 56.136C83.251 56.2521 83.3133 56.4069 83.3133 56.5679C83.3133 56.7289 83.251 56.8836 83.1395 56.9998C83.0877 57.0553 83.0253 57.0998 82.9559 57.1305C82.8865 57.1613 82.8116 57.1777 82.7357 57.1787C82.6574 57.1783 82.58 57.1622 82.5081 57.1315C82.4361 57.1008 82.371 57.056 82.3165 56.9998C82.2084 56.8819 82.1484 56.7278 82.1484 56.5679C82.1484 56.4079 82.2084 56.2538 82.3165 56.136C82.3702 56.0788 82.4352 56.0334 82.5074 56.0026C82.5795 55.9718 82.6572 55.9563 82.7357 55.9571C82.8118 55.9568 82.8871 55.9727 82.9566 56.0035C83.0262 56.0343 83.0885 56.0795 83.1395 56.136ZM83.1395 56.5653C83.1388 56.4553 83.0968 56.3495 83.0219 56.2689C82.9883 56.2318 82.9473 56.2021 82.9015 56.1819C82.8557 56.1616 82.8062 56.1512 82.7561 56.1513C82.7044 56.1501 82.653 56.1599 82.6054 56.1802C82.5578 56.2005 82.5151 56.2307 82.4801 56.2689C82.4052 56.3495 82.3632 56.4553 82.3625 56.5653C82.3611 56.6758 82.4034 56.7823 82.4801 56.8618C82.5148 56.9006 82.5574 56.9316 82.6049 56.9527C82.6525 56.9739 82.704 56.9847 82.7561 56.9844C82.8065 56.9836 82.8562 56.9722 82.9019 56.9511C82.9477 56.93 82.9886 56.8996 83.0219 56.8618C83.0864 56.7844 83.1209 56.6864 83.119 56.5858L83.1395 56.5653Z" fill="black"/>
<path d="M83.5939 57.1078V56.0855C83.5932 56.0726 83.5952 56.0596 83.5998 56.0475C83.6044 56.0354 83.6115 56.0244 83.6207 56.0152C83.6299 56.0061 83.6409 55.9989 83.653 55.9943C83.6651 55.9897 83.6781 55.9877 83.691 55.9884H83.8904C84.0388 56.0022 84.1767 56.0709 84.2771 56.181C84.3775 56.2912 84.4332 56.4349 84.4332 56.5839C84.4332 56.7329 84.3775 56.8766 84.2771 56.9868C84.1767 57.0969 84.0388 57.1656 83.8904 57.1794H83.691C83.6689 57.1811 83.6469 57.1749 83.6291 57.1617C83.6112 57.1486 83.5988 57.1294 83.5939 57.1078ZM83.783 57.0107H83.8904C83.9903 56.9995 84.0826 56.9518 84.1496 56.8769C84.2166 56.8019 84.2536 56.7049 84.2536 56.6043C84.2536 56.5038 84.2166 56.4068 84.1496 56.3318C84.0826 56.2569 83.9903 56.2092 83.8904 56.198H83.783V57.0107Z" fill="black"/>
<path d="M82.2309 119.678H26.7266V120.388H82.2309V119.678Z" fill="#DBDBDB"/>
<path d="M75.998 72.5668C80.2959 85.1741 73.5598 98.8785 60.9525 103.176C48.3452 107.474 29.655 96.5775 25.3571 83.9702C21.0591 71.3628 40.8338 68.2501 53.4411 63.9521C66.0485 59.6542 71.7001 59.9595 75.998 72.5668Z" fill="#F5F5F5"/>
<path d="M36.2031 109.128H71.2239L66.1153 74.0869H41.3077L36.2031 109.128Z" fill="#00510C"/>
<path opacity="0.1" d="M41.3117 74.0869L45.2025 109.128H36.2031L41.3117 74.0869Z" fill="#263238"/>
<path d="M58.957 76.5374C58.957 76.5093 58.3179 73.5711 57.6387 70.6088C57.0759 68.1329 54.5759 66.9914 52.4858 67.329C51.7463 67.4456 49.3628 68.0646 49.6723 71.0912C50.03 74.5719 50.3033 76.252 50.3073 76.2681L48.8322 76.5053C48.8322 76.4369 48.5509 74.7689 48.1891 71.2359C47.9037 68.4223 49.4954 66.3202 52.2527 65.8821C55.01 65.4439 58.342 66.9713 59.0856 70.3034C59.7649 73.2777 60.4 76.2239 60.408 76.252L58.957 76.5374Z" fill="#455A64"/>
<path d="M44.7254 108.86C43.9215 108.498 43.1458 108.092 42.366 107.69C41.5863 107.289 40.8226 106.858 40.0629 106.42H40.2639C39.665 106.846 39.0581 107.272 38.4471 107.674C37.8362 108.076 37.2172 108.478 36.5781 108.86C37.1328 108.374 37.7076 107.916 38.2864 107.461C38.8651 107.007 39.452 106.565 40.0468 106.127L40.1393 106.059L40.2478 106.119C41.0115 106.545 41.7671 106.986 42.5147 107.441C43.2623 107.895 44.0059 108.354 44.7254 108.86Z" fill="white"/>
<path d="M40.1562 106.27C40.1562 104.027 40.1964 101.789 40.2447 99.5538C40.2929 97.319 40.3733 95.0762 40.4336 92.8415C40.4939 90.6067 40.6024 88.3679 40.7069 86.1291L40.8757 82.777C40.9481 81.6596 41.0043 80.5422 41.0847 79.4248C41.0847 80.5422 41.0847 81.6636 41.0606 82.781L40.9963 86.1412C40.9481 88.3759 40.8677 90.6147 40.8074 92.8535C40.7471 95.0923 40.6386 97.3271 40.5301 99.5619C40.4215 101.797 40.309 104.035 40.1562 106.27Z" fill="white"/>
<path d="M58.1955 76.3869C58.1907 76.682 58.2739 76.9719 58.4343 77.2196C58.5948 77.4673 58.8254 77.6617 59.0967 77.778C59.3679 77.8942 59.6677 77.9271 59.9577 77.8725C60.2478 77.8179 60.515 77.6782 60.7254 77.4712C60.9358 77.2642 61.0799 76.9993 61.1393 76.7102C61.1986 76.421 61.1706 76.1208 61.0588 75.8476C60.947 75.5745 60.7564 75.3408 60.5114 75.1763C60.2663 75.0118 59.9778 74.9239 59.6827 74.9239C59.489 74.9223 59.2968 74.9589 59.1173 75.0315C58.9377 75.1042 58.7742 75.2115 58.6361 75.3474C58.498 75.4832 58.388 75.645 58.3124 75.8233C58.2368 76.0017 58.1971 76.1932 58.1955 76.3869Z" fill="#263238"/>
<path d="M49.6747 77.8487C50.496 77.8487 51.1618 77.1955 51.1618 76.3897C51.1618 75.5839 50.496 74.9307 49.6747 74.9307C48.8533 74.9307 48.1875 75.5839 48.1875 76.3897C48.1875 77.1955 48.8533 77.8487 49.6747 77.8487Z" fill="#263238"/>
<path d="M61.3915 86.6798C61.0228 86.3112 60.4699 86.3112 60.1012 86.6798L53.1893 93.5917L50.3323 90.7348C49.9637 90.3662 49.4107 90.3662 49.0421 90.7348C48.6735 91.1034 48.6735 91.6564 49.0421 92.025L52.5442 95.5271C52.7285 95.7114 52.9128 95.8036 53.1893 95.8036C53.4658 95.8036 53.6501 95.7114 53.8344 95.5271L61.3915 87.97C61.7601 87.6014 61.7601 87.0484 61.3915 86.6798Z" fill="white"/>
</svg>
