<svg width="26" height="21" viewBox="0 0 26 21" fill="none" xmlns="http://www.w3.org/2000/svg">
<path d="M2.01741 1.66672L3.44455 0.250732L22.0865 18.8927L20.6705 20.3198L17.2365 16.8858C15.9543 17.3095 14.594 17.5324 13.1669 17.5324C7.59216 17.5324 2.83133 14.0649 0.902466 9.17032C1.67178 7.20801 2.89822 5.47984 4.45915 4.10846L2.01741 1.66672ZM13.1669 5.82548C14.054 5.82548 14.9048 6.17788 15.5321 6.80516C16.1593 7.43244 16.5118 8.28321 16.5118 9.17032C16.5123 9.55004 16.4482 9.92708 16.3222 10.2853L12.052 6.01502C12.4102 5.88901 12.7872 5.82491 13.1669 5.82548ZM13.1669 0.808207C18.7416 0.808207 23.5025 4.2757 25.4313 9.17032C24.5214 11.4818 22.9751 13.4882 20.9715 14.9569L19.3883 13.3625C20.9302 12.2959 22.1737 10.8528 23.0008 9.17032C22.0994 7.33059 20.7 5.78062 18.9616 4.6966C17.2232 3.61257 15.2156 3.03797 13.1669 3.0381C11.9516 3.0381 10.7586 3.2388 9.64367 3.59558L7.92664 1.88971C9.53217 1.19844 11.3049 0.808207 13.1669 0.808207ZM3.33305 9.17032C4.23442 11.0101 5.63383 12.56 7.37221 13.6441C9.1106 14.7281 11.1182 15.3027 13.1669 15.3025C13.9362 15.3025 14.6944 15.2245 15.3968 15.0684L12.8547 12.5152C12.0789 12.432 11.3549 12.0858 10.8032 11.534C10.2515 10.9823 9.90522 10.2583 9.82206 9.48251L6.03123 5.68053C4.92743 6.62824 4.00202 7.81009 3.33305 9.17032Z" fill="#777474"/>
</svg>
