<svg width="20" height="20" viewBox="0 0 20 20" fill="none" xmlns="http://www.w3.org/2000/svg">
<path d="M2.98923 11.4825C4.47257 12.9567 7.0584 14.9992 10.0001 14.9992C12.9417 14.9992 15.5284 12.9567 17.0109 11.4825C17.4026 11.0933 17.5984 10.8992 17.7226 10.5167C17.8117 10.2442 17.8117 9.75583 17.7226 9.48333C17.5976 9.10167 17.4017 8.90667 17.0109 8.5175C15.5276 7.04333 12.9426 5 10.0001 5C7.0584 5 4.47173 7.04333 2.98923 8.5175C2.59757 8.90667 2.40174 9.10083 2.27757 9.48333C2.1884 9.75583 2.1884 10.2442 2.27757 10.5167C2.40257 10.8983 2.59757 11.0933 2.98923 11.4825Z" stroke="#6A6B72" stroke-width="1.5" strokeLinecap="round" strokeLinejoin="round"/>
<path d="M8.3335 10.0002C8.3335 10.4422 8.50909 10.8661 8.82165 11.1787C9.13421 11.4912 9.55814 11.6668 10.0002 11.6668C10.4422 11.6668 10.8661 11.4912 11.1787 11.1787C11.4912 10.8661 11.6668 10.4422 11.6668 10.0002C11.6668 9.55814 11.4912 9.13421 11.1787 8.82165C10.8661 8.50909 10.4422 8.3335 10.0002 8.3335C9.55814 8.3335 9.13421 8.50909 8.82165 8.82165C8.50909 9.13421 8.3335 9.55814 8.3335 10.0002Z" stroke="#6A6B72" stroke-width="1.5" strokeLinecap="round" strokeLinejoin="round"/>
</svg>
